<svg width="1023" height="700" viewBox="0 0 1023 700" fill="none" xmlns="http://www.w3.org/2000/svg">
<g clip-path="url(#clip0_1_113)">
<path d="M679.6 345.441C698.773 345.441 714.316 330.818 714.316 312.78C714.316 294.741 698.773 280.119 679.6 280.119C660.427 280.119 644.885 294.741 644.885 312.78C644.885 330.818 660.427 345.441 679.6 345.441Z" fill="#F2F2F2"/>
<path d="M864.715 192.322C883.888 192.322 899.431 177.699 899.431 159.661C899.431 141.623 883.888 127 864.715 127C845.543 127 830 141.623 830 159.661C830 177.699 845.543 192.322 864.715 192.322Z" fill="#F2F2F2"/>
<path d="M-6.10352e-05 531.235C11.2948 543.827 23.5116 555.66 36.5607 566.648L986.439 567.871C999.488 556.883 1011.71 545.05 1023 532.459L-6.10352e-05 531.235Z" fill="#3F3D56"/>
<path d="M644.143 417.843V522.678C644.144 524.014 644.709 525.295 645.713 526.24C646.717 527.185 648.079 527.716 649.499 527.717H814.626C816.046 527.716 817.408 527.185 818.412 526.24C819.416 525.295 819.981 524.014 819.982 522.678V417.843C819.978 416.508 819.413 415.229 818.409 414.286C817.405 413.342 816.045 412.812 814.626 412.81H649.499C648.08 412.812 646.72 413.342 645.716 414.286C644.712 415.229 644.147 416.508 644.143 417.843Z" fill="#3F3D56"/>
<path d="M648.017 419.147V521.385C648.018 522.099 648.32 522.783 648.857 523.288C649.393 523.793 650.121 524.077 650.879 524.078H813.252C814.01 524.077 814.738 523.793 815.274 523.288C815.811 522.783 816.113 522.099 816.114 521.385V419.147C816.114 418.433 815.812 417.747 815.276 417.241C814.739 416.736 814.011 416.451 813.252 416.449H650.879C650.12 416.451 649.392 416.736 648.855 417.241C648.319 417.747 648.017 418.433 648.017 419.147Z" fill="#6C63FF"/>
<path d="M640.69 543.124C640.992 543.481 641.377 543.769 641.814 543.966C642.252 544.163 642.731 544.264 643.217 544.261H820.029C820.513 544.261 820.99 544.159 821.427 543.963C821.863 543.767 822.247 543.482 822.552 543.129C822.857 542.775 823.074 542.363 823.188 541.92C823.301 541.478 823.309 541.018 823.21 540.573L820.465 528.307C820.351 527.807 820.106 527.341 819.752 526.953C819.399 526.565 818.947 526.266 818.439 526.083C818.071 525.948 817.68 525.878 817.285 525.878H645.95C645.555 525.878 645.164 525.948 644.796 526.083C644.288 526.266 643.836 526.565 643.483 526.953C643.129 527.341 642.884 527.807 642.77 528.307L640.025 540.573C639.928 541.018 639.937 541.477 640.052 541.919C640.167 542.36 640.385 542.772 640.69 543.124Z" fill="#2F2E41"/>
<path d="M811.218 531.161H815.394C815.745 531.161 816.029 530.894 816.029 530.564V528.685C816.029 528.355 815.745 528.087 815.394 528.087H811.218C810.867 528.087 810.583 528.355 810.583 528.685V530.564C810.583 530.894 810.867 531.161 811.218 531.161Z" fill="#3F3D56"/>
<path d="M800.326 531.161H804.503C804.853 531.161 805.137 530.894 805.137 530.564V528.685C805.137 528.355 804.853 528.087 804.503 528.087H800.326C799.976 528.087 799.692 528.355 799.692 528.685V530.564C799.692 530.894 799.976 531.161 800.326 531.161Z" fill="#3F3D56"/>
<path d="M789.435 531.161H793.611C793.962 531.161 794.246 530.894 794.246 530.564V528.685C794.246 528.355 793.962 528.087 793.611 528.087H789.435C789.084 528.087 788.8 528.355 788.8 528.685V530.564C788.8 530.894 789.084 531.161 789.435 531.161Z" fill="#3F3D56"/>
<path d="M778.543 531.161H782.72C783.07 531.161 783.354 530.894 783.354 530.564V528.685C783.354 528.355 783.07 528.087 782.72 528.087H778.543C778.193 528.087 777.909 528.355 777.909 528.685V530.564C777.909 530.894 778.193 531.161 778.543 531.161Z" fill="#3F3D56"/>
<path d="M767.652 531.161H771.828C772.179 531.161 772.463 530.894 772.463 530.564V528.685C772.463 528.355 772.179 528.087 771.828 528.087H767.652C767.301 528.087 767.017 528.355 767.017 528.685V530.564C767.017 530.894 767.301 531.161 767.652 531.161Z" fill="#3F3D56"/>
<path d="M756.76 531.161H760.937C761.287 531.161 761.571 530.894 761.571 530.564V528.685C761.571 528.355 761.287 528.087 760.937 528.087H756.76C756.41 528.087 756.126 528.355 756.126 528.685V530.564C756.126 530.894 756.41 531.161 756.76 531.161Z" fill="#3F3D56"/>
<path d="M745.869 531.161H750.045C750.396 531.161 750.68 530.894 750.68 530.564V528.685C750.68 528.355 750.396 528.087 750.045 528.087H745.869C745.518 528.087 745.234 528.355 745.234 528.685V530.564C745.234 530.894 745.518 531.161 745.869 531.161Z" fill="#3F3D56"/>
<path d="M734.977 531.161H739.154C739.504 531.161 739.788 530.894 739.788 530.564V528.685C739.788 528.355 739.504 528.087 739.154 528.087H734.977C734.627 528.087 734.343 528.355 734.343 528.685V530.564C734.343 530.894 734.627 531.161 734.977 531.161Z" fill="#3F3D56"/>
<path d="M724.086 531.161H728.262C728.613 531.161 728.897 530.894 728.897 530.564V528.685C728.897 528.355 728.613 528.087 728.262 528.087H724.086C723.735 528.087 723.451 528.355 723.451 528.685V530.564C723.451 530.894 723.735 531.161 724.086 531.161Z" fill="#3F3D56"/>
<path d="M713.194 531.161H717.371C717.721 531.161 718.005 530.894 718.005 530.564V528.685C718.005 528.355 717.721 528.087 717.371 528.087H713.194C712.844 528.087 712.56 528.355 712.56 528.685V530.564C712.56 530.894 712.844 531.161 713.194 531.161Z" fill="#3F3D56"/>
<path d="M702.303 531.161H706.479C706.83 531.161 707.114 530.894 707.114 530.564V528.685C707.114 528.355 706.83 528.087 706.479 528.087H702.303C701.952 528.087 701.668 528.355 701.668 528.685V530.564C701.668 530.894 701.952 531.161 702.303 531.161Z" fill="#3F3D56"/>
<path d="M691.411 531.161H695.588C695.938 531.161 696.222 530.894 696.222 530.564V528.685C696.222 528.355 695.938 528.087 695.588 528.087H691.411C691.061 528.087 690.777 528.355 690.777 528.685V530.564C690.777 530.894 691.061 531.161 691.411 531.161Z" fill="#3F3D56"/>
<path d="M680.52 531.161H684.696C685.047 531.161 685.331 530.894 685.331 530.564V528.685C685.331 528.355 685.047 528.087 684.696 528.087H680.52C680.169 528.087 679.885 528.355 679.885 528.685V530.564C679.885 530.894 680.169 531.161 680.52 531.161Z" fill="#3F3D56"/>
<path d="M669.628 531.161H673.805C674.155 531.161 674.439 530.894 674.439 530.564V528.685C674.439 528.355 674.155 528.087 673.805 528.087H669.628C669.278 528.087 668.994 528.355 668.994 528.685V530.564C668.994 530.894 669.278 531.161 669.628 531.161Z" fill="#3F3D56"/>
<path d="M658.737 531.161H662.913C663.264 531.161 663.548 530.894 663.548 530.564V528.685C663.548 528.355 663.264 528.087 662.913 528.087H658.737C658.386 528.087 658.102 528.355 658.102 528.685V530.564C658.102 530.894 658.386 531.161 658.737 531.161Z" fill="#3F3D56"/>
<path d="M647.845 531.161H652.022C652.372 531.161 652.656 530.894 652.656 530.564V528.685C652.656 528.355 652.372 528.087 652.022 528.087H647.845C647.495 528.087 647.211 528.355 647.211 528.685V530.564C647.211 530.894 647.495 531.161 647.845 531.161Z" fill="#3F3D56"/>
<path d="M811.347 536.285H815.523C815.873 536.285 816.158 536.018 816.158 535.688V533.808C816.158 533.478 815.873 533.211 815.523 533.211H811.347C810.996 533.211 810.712 533.478 810.712 533.808V535.688C810.712 536.018 810.996 536.285 811.347 536.285Z" fill="#3F3D56"/>
<path d="M800.455 536.285H804.631C804.982 536.285 805.266 536.018 805.266 535.688V533.808C805.266 533.478 804.982 533.211 804.631 533.211H800.455C800.105 533.211 799.82 533.478 799.82 533.808V535.688C799.82 536.018 800.105 536.285 800.455 536.285Z" fill="#3F3D56"/>
<path d="M789.564 536.285H793.74C794.09 536.285 794.375 536.018 794.375 535.688V533.808C794.375 533.478 794.09 533.211 793.74 533.211H789.564C789.213 533.211 788.929 533.478 788.929 533.808V535.688C788.929 536.018 789.213 536.285 789.564 536.285Z" fill="#3F3D56"/>
<path d="M778.672 536.285H782.848C783.199 536.285 783.483 536.018 783.483 535.688V533.808C783.483 533.478 783.199 533.211 782.848 533.211H778.672C778.321 533.211 778.037 533.478 778.037 533.808V535.688C778.037 536.018 778.321 536.285 778.672 536.285Z" fill="#3F3D56"/>
<path d="M767.781 536.285H771.957C772.307 536.285 772.592 536.018 772.592 535.688V533.808C772.592 533.478 772.307 533.211 771.957 533.211H767.781C767.43 533.211 767.146 533.478 767.146 533.808V535.688C767.146 536.018 767.43 536.285 767.781 536.285Z" fill="#3F3D56"/>
<path d="M756.889 536.285H761.065C761.416 536.285 761.7 536.018 761.7 535.688V533.808C761.7 533.478 761.416 533.211 761.065 533.211H756.889C756.538 533.211 756.254 533.478 756.254 533.808V535.688C756.254 536.018 756.538 536.285 756.889 536.285Z" fill="#3F3D56"/>
<path d="M745.998 536.285H750.174C750.524 536.285 750.809 536.018 750.809 535.688V533.808C750.809 533.478 750.524 533.211 750.174 533.211H745.998C745.647 533.211 745.363 533.478 745.363 533.808V535.688C745.363 536.018 745.647 536.285 745.998 536.285Z" fill="#3F3D56"/>
<path d="M735.106 536.285H739.282C739.633 536.285 739.917 536.018 739.917 535.688V533.808C739.917 533.478 739.633 533.211 739.282 533.211H735.106C734.755 533.211 734.471 533.478 734.471 533.808V535.688C734.471 536.018 734.755 536.285 735.106 536.285Z" fill="#3F3D56"/>
<path d="M724.214 536.285H728.391C728.741 536.285 729.025 536.018 729.025 535.688V533.808C729.025 533.478 728.741 533.211 728.391 533.211H724.214C723.864 533.211 723.58 533.478 723.58 533.808V535.688C723.58 536.018 723.864 536.285 724.214 536.285Z" fill="#3F3D56"/>
<path d="M713.323 536.285H717.499C717.85 536.285 718.134 536.018 718.134 535.688V533.808C718.134 533.478 717.85 533.211 717.499 533.211H713.323C712.972 533.211 712.688 533.478 712.688 533.808V535.688C712.688 536.018 712.972 536.285 713.323 536.285Z" fill="#3F3D56"/>
<path d="M702.431 536.285H706.608C706.958 536.285 707.242 536.018 707.242 535.688V533.808C707.242 533.478 706.958 533.211 706.608 533.211H702.431C702.081 533.211 701.797 533.478 701.797 533.808V535.688C701.797 536.018 702.081 536.285 702.431 536.285Z" fill="#3F3D56"/>
<path d="M691.54 536.285H695.716C696.067 536.285 696.351 536.018 696.351 535.688V533.808C696.351 533.478 696.067 533.211 695.716 533.211H691.54C691.189 533.211 690.905 533.478 690.905 533.808V535.688C690.905 536.018 691.189 536.285 691.54 536.285Z" fill="#3F3D56"/>
<path d="M680.649 536.285H684.825C685.175 536.285 685.459 536.018 685.459 535.688V533.808C685.459 533.478 685.175 533.211 684.825 533.211H680.649C680.298 533.211 680.014 533.478 680.014 533.808V535.688C680.014 536.018 680.298 536.285 680.649 536.285Z" fill="#3F3D56"/>
<path d="M669.757 536.285H673.933C674.284 536.285 674.568 536.018 674.568 535.688V533.808C674.568 533.478 674.284 533.211 673.933 533.211H669.757C669.407 533.211 669.122 533.478 669.122 533.808V535.688C669.122 536.018 669.407 536.285 669.757 536.285Z" fill="#3F3D56"/>
<path d="M658.865 536.285H663.042C663.392 536.285 663.677 536.018 663.677 535.688V533.808C663.677 533.478 663.392 533.211 663.042 533.211H658.865C658.515 533.211 658.231 533.478 658.231 533.808V535.688C658.231 536.018 658.515 536.285 658.865 536.285Z" fill="#3F3D56"/>
<path d="M647.974 536.285H652.15C652.501 536.285 652.785 536.018 652.785 535.688V533.808C652.785 533.478 652.501 533.211 652.15 533.211H647.974C647.623 533.211 647.339 533.478 647.339 533.808V535.688C647.339 536.018 647.623 536.285 647.974 536.285Z" fill="#3F3D56"/>
<path d="M720.947 542.433H763.244C763.594 542.433 763.878 542.166 763.878 541.836V539.956C763.878 539.626 763.594 539.359 763.244 539.359H720.947C720.597 539.359 720.312 539.626 720.312 539.956V541.836C720.312 542.166 720.597 542.433 720.947 542.433Z" fill="#3F3D56"/>
<path d="M676.135 438.816H672.438C671.317 438.816 670.408 439.671 670.408 440.726C670.408 441.78 671.317 442.635 672.438 442.635H676.135C677.256 442.635 678.165 441.78 678.165 440.726C678.165 439.671 677.256 438.816 676.135 438.816Z" fill="white"/>
<path d="M718.421 438.816H714.723C713.602 438.816 712.694 439.671 712.694 440.726C712.694 441.78 713.602 442.635 714.723 442.635H718.421C719.542 442.635 720.45 441.78 720.45 440.726C720.45 439.671 719.542 438.816 718.421 438.816Z" fill="white"/>
<path d="M730.402 438.816H726.704C725.583 438.816 724.675 439.671 724.675 440.726C724.675 441.78 725.583 442.635 726.704 442.635H730.402C731.522 442.635 732.431 441.78 732.431 440.726C732.431 439.671 731.522 438.816 730.402 438.816Z" fill="white"/>
<path d="M706.919 438.498H683.94C682.819 438.498 681.91 439.353 681.91 440.407C681.91 441.462 682.819 442.317 683.94 442.317H706.919C708.04 442.317 708.949 441.462 708.949 440.407C708.949 439.353 708.04 438.498 706.919 438.498Z" fill="white"/>
<path d="M763.299 438.498H740.32C739.199 438.498 738.291 439.353 738.291 440.407C738.291 441.462 739.199 442.317 740.32 442.317H763.299C764.42 442.317 765.329 441.462 765.329 440.407C765.329 439.353 764.42 438.498 763.299 438.498Z" fill="white"/>
<path d="M687.411 447.436H683.714C682.593 447.436 681.684 448.291 681.684 449.345C681.684 450.4 682.593 451.255 683.714 451.255H687.411C688.532 451.255 689.441 450.4 689.441 449.345C689.441 448.291 688.532 447.436 687.411 447.436Z" fill="white"/>
<path d="M729.697 447.436H725.999C724.878 447.436 723.97 448.291 723.97 449.345C723.97 450.4 724.878 451.255 725.999 451.255H729.697C730.818 451.255 731.726 450.4 731.726 449.345C731.726 448.291 730.818 447.436 729.697 447.436Z" fill="white"/>
<path d="M741.678 447.436H737.98C736.859 447.436 735.951 448.291 735.951 449.345C735.951 450.4 736.859 451.255 737.98 451.255H741.678C742.799 451.255 743.707 450.4 743.707 449.345C743.707 448.291 742.799 447.436 741.678 447.436Z" fill="white"/>
<path d="M718.195 447.117H695.216C694.095 447.117 693.186 447.972 693.186 449.027C693.186 450.082 694.095 450.937 695.216 450.937H718.195C719.316 450.937 720.225 450.082 720.225 449.027C720.225 447.972 719.316 447.117 718.195 447.117Z" fill="white"/>
<path d="M774.575 447.117H751.596C750.475 447.117 749.567 447.972 749.567 449.027C749.567 450.082 750.475 450.937 751.596 450.937H774.575C775.696 450.937 776.605 450.082 776.605 449.027C776.605 447.972 775.696 447.117 774.575 447.117Z" fill="white"/>
<path d="M698.687 456.055H694.99C693.869 456.055 692.96 456.91 692.96 457.965C692.96 459.02 693.869 459.875 694.99 459.875H698.687C699.808 459.875 700.717 459.02 700.717 457.965C700.717 456.91 699.808 456.055 698.687 456.055Z" fill="white"/>
<path d="M740.973 456.055H737.276C736.155 456.055 735.246 456.91 735.246 457.965C735.246 459.02 736.155 459.875 737.276 459.875H740.973C742.094 459.875 743.003 459.02 743.003 457.965C743.003 456.91 742.094 456.055 740.973 456.055Z" fill="white"/>
<path d="M752.954 456.055H749.256C748.136 456.055 747.227 456.91 747.227 457.965C747.227 459.02 748.136 459.875 749.256 459.875H752.954C754.075 459.875 754.983 459.02 754.983 457.965C754.983 456.91 754.075 456.055 752.954 456.055Z" fill="white"/>
<path d="M729.471 455.737H706.492C705.371 455.737 704.462 456.592 704.462 457.647C704.462 458.701 705.371 459.556 706.492 459.556H729.471C730.592 459.556 731.501 458.701 731.501 457.647C731.501 456.592 730.592 455.737 729.471 455.737Z" fill="white"/>
<path d="M785.852 455.737H762.872C761.752 455.737 760.843 456.592 760.843 457.647C760.843 458.701 761.752 459.556 762.872 459.556H785.852C786.973 459.556 787.881 458.701 787.881 457.647C787.881 456.592 786.973 455.737 785.852 455.737Z" fill="white"/>
<path d="M709.964 464.675H706.266C705.145 464.675 704.237 465.53 704.237 466.585C704.237 467.639 705.145 468.494 706.266 468.494H709.964C711.085 468.494 711.993 467.639 711.993 466.585C711.993 465.53 711.085 464.675 709.964 464.675Z" fill="white"/>
<path d="M752.249 464.675H748.552C747.431 464.675 746.522 465.53 746.522 466.585C746.522 467.639 747.431 468.494 748.552 468.494H752.249C753.37 468.494 754.279 467.639 754.279 466.585C754.279 465.53 753.37 464.675 752.249 464.675Z" fill="white"/>
<path d="M764.23 464.675H760.533C759.412 464.675 758.503 465.53 758.503 466.585C758.503 467.639 759.412 468.494 760.533 468.494H764.23C765.351 468.494 766.26 467.639 766.26 466.585C766.26 465.53 765.351 464.675 764.23 464.675Z" fill="white"/>
<path d="M740.747 464.357H717.768C716.647 464.357 715.738 465.212 715.738 466.266C715.738 467.321 716.647 468.176 717.768 468.176H740.747C741.868 468.176 742.777 467.321 742.777 466.266C742.777 465.212 741.868 464.357 740.747 464.357Z" fill="white"/>
<path d="M718.421 498.95H714.723C713.602 498.95 712.694 499.805 712.694 500.86C712.694 501.915 713.602 502.77 714.723 502.77H718.421C719.542 502.77 720.45 501.915 720.45 500.86C720.45 499.805 719.542 498.95 718.421 498.95Z" fill="white"/>
<path d="M730.402 498.95H726.704C725.583 498.95 724.675 499.805 724.675 500.86C724.675 501.915 725.583 502.77 726.704 502.77H730.402C731.522 502.77 732.431 501.915 732.431 500.86C732.431 499.805 731.522 498.95 730.402 498.95Z" fill="white"/>
<path d="M763.299 499.269H740.32C739.199 499.269 738.291 500.124 738.291 501.178C738.291 502.233 739.199 503.088 740.32 503.088H763.299C764.42 503.088 765.329 502.233 765.329 501.178C765.329 500.124 764.42 499.269 763.299 499.269Z" fill="white"/>
<path d="M676.135 498.95H672.438C671.317 498.95 670.408 499.805 670.408 500.86C670.408 501.915 671.317 502.77 672.438 502.77H676.135C677.256 502.77 678.165 501.915 678.165 500.86C678.165 499.805 677.256 498.95 676.135 498.95Z" fill="white"/>
<path d="M706.919 499.269H683.94C682.819 499.269 681.91 500.124 681.91 501.178C681.91 502.233 682.819 503.088 683.94 503.088H706.919C708.04 503.088 708.949 502.233 708.949 501.178C708.949 500.124 708.04 499.269 706.919 499.269Z" fill="white"/>
<path d="M687.411 490.331H683.714C682.593 490.331 681.684 491.186 681.684 492.24C681.684 493.295 682.593 494.15 683.714 494.15H687.411C688.532 494.15 689.441 493.295 689.441 492.24C689.441 491.186 688.532 490.331 687.411 490.331Z" fill="white"/>
<path d="M729.697 490.331H725.999C724.878 490.331 723.97 491.186 723.97 492.24C723.97 493.295 724.878 494.15 725.999 494.15H729.697C730.818 494.15 731.726 493.295 731.726 492.24C731.726 491.186 730.818 490.331 729.697 490.331Z" fill="white"/>
<path d="M741.678 490.331H737.98C736.859 490.331 735.951 491.186 735.951 492.24C735.951 493.295 736.859 494.15 737.98 494.15H741.678C742.799 494.15 743.707 493.295 743.707 492.24C743.707 491.186 742.799 490.331 741.678 490.331Z" fill="white"/>
<path d="M718.195 490.649H695.216C694.095 490.649 693.186 491.504 693.186 492.559C693.186 493.613 694.095 494.468 695.216 494.468H718.195C719.316 494.468 720.225 493.613 720.225 492.559C720.225 491.504 719.316 490.649 718.195 490.649Z" fill="white"/>
<path d="M698.687 481.711H694.99C693.869 481.711 692.96 482.566 692.96 483.621C692.96 484.675 693.869 485.53 694.99 485.53H698.687C699.808 485.53 700.717 484.675 700.717 483.621C700.717 482.566 699.808 481.711 698.687 481.711Z" fill="white"/>
<path d="M740.973 481.711H737.276C736.155 481.711 735.246 482.566 735.246 483.621C735.246 484.675 736.155 485.53 737.276 485.53H740.973C742.094 485.53 743.003 484.675 743.003 483.621C743.003 482.566 742.094 481.711 740.973 481.711Z" fill="white"/>
<path d="M752.954 481.711H749.256C748.136 481.711 747.227 482.566 747.227 483.621C747.227 484.675 748.136 485.53 749.256 485.53H752.954C754.075 485.53 754.983 484.675 754.983 483.621C754.983 482.566 754.075 481.711 752.954 481.711Z" fill="white"/>
<path d="M729.471 482.03H706.492C705.371 482.03 704.462 482.884 704.462 483.939C704.462 484.994 705.371 485.849 706.492 485.849H729.471C730.592 485.849 731.501 484.994 731.501 483.939C731.501 482.884 730.592 482.03 729.471 482.03Z" fill="white"/>
<path d="M709.964 473.092H706.266C705.145 473.092 704.237 473.946 704.237 475.001C704.237 476.056 705.145 476.911 706.266 476.911H709.964C711.085 476.911 711.993 476.056 711.993 475.001C711.993 473.946 711.085 473.092 709.964 473.092Z" fill="white"/>
<path d="M752.249 473.092H748.552C747.431 473.092 746.522 473.946 746.522 475.001C746.522 476.056 747.431 476.911 748.552 476.911H752.249C753.37 476.911 754.279 476.056 754.279 475.001C754.279 473.946 753.37 473.092 752.249 473.092Z" fill="white"/>
<path d="M764.23 473.092H760.533C759.412 473.092 758.503 473.946 758.503 475.001C758.503 476.056 759.412 476.911 760.533 476.911H764.23C765.351 476.911 766.26 476.056 766.26 475.001C766.26 473.946 765.351 473.092 764.23 473.092Z" fill="white"/>
<path d="M740.747 473.41H717.768C716.647 473.41 715.738 474.265 715.738 475.319C715.738 476.374 716.647 477.229 717.768 477.229H740.747C741.868 477.229 742.777 476.374 742.777 475.319C742.777 474.265 741.868 473.41 740.747 473.41Z" fill="white"/>
<path d="M656.479 599.969L639.122 574.157L693.602 533.298L716.088 509.86C719.01 506.815 722.73 504.544 726.876 503.276C731.022 502.007 735.45 501.784 739.716 502.629C743.983 503.475 747.939 505.359 751.189 508.093C754.439 510.828 756.87 514.317 758.237 518.212C760.264 523.984 759.828 530.271 757.022 535.746C754.215 541.222 749.257 545.457 743.194 547.558L707.636 559.883L656.479 599.969Z" fill="#FFB6B6"/>
<path d="M249.23 412.815V538.269H342.647V412.815C342.648 411.913 342.342 411.034 341.774 410.307C341.205 409.581 340.404 409.045 339.487 408.778C339.056 408.644 338.603 408.578 338.148 408.583H253.741C253.15 408.582 252.563 408.69 252.016 408.902C251.469 409.115 250.972 409.426 250.553 409.819C250.134 410.212 249.802 410.679 249.574 411.193C249.347 411.707 249.23 412.258 249.23 412.815ZM285.686 455.921C285.711 453.448 286.772 451.084 288.64 449.343C290.507 447.603 293.03 446.626 295.659 446.626C298.288 446.626 300.81 447.603 302.678 449.343C304.545 451.084 305.607 453.448 305.631 455.921V470.478C305.618 472.958 304.561 475.332 302.692 477.081C300.824 478.83 298.295 479.812 295.659 479.812C293.023 479.812 290.494 478.83 288.625 477.081C286.756 475.332 285.7 472.958 285.686 470.478V455.921Z" fill="#2F2E41"/>
<path d="M248.944 534.257V546.354C248.946 546.981 249.21 547.582 249.68 548.026C250.15 548.47 250.787 548.722 251.453 548.728H340.424C341.09 548.724 341.729 548.473 342.199 548.028C342.669 547.584 342.933 546.982 342.933 546.354V534.257H248.944Z" fill="#3F3D56"/>
<path d="M102.271 223.802V452.863C102.274 455.782 103.507 458.581 105.701 460.645C107.895 462.709 110.87 463.87 113.973 463.872H474.77C477.873 463.87 480.848 462.709 483.042 460.645C485.236 458.581 486.469 455.782 486.472 452.863V223.802C486.464 220.886 485.229 218.091 483.035 216.03C480.842 213.969 477.87 212.809 474.77 212.806H113.973C110.873 212.809 107.901 213.969 105.708 216.03C103.514 218.091 102.279 220.886 102.271 223.802Z" fill="#3F3D56"/>
<path d="M110.735 226.652V450.038C110.738 451.597 111.398 453.092 112.57 454.195C113.743 455.298 115.332 455.919 116.989 455.921H471.767C473.424 455.919 475.013 455.298 476.186 454.195C477.358 453.092 478.018 451.597 478.021 450.038V226.652C478.02 225.091 477.362 223.593 476.19 222.488C475.017 221.382 473.427 220.76 471.767 220.756H116.989C115.33 220.76 113.739 221.382 112.567 222.488C111.394 223.593 110.736 225.091 110.735 226.652Z" fill="white"/>
<path d="M176.576 547.908C176.937 548.334 177.396 548.677 177.919 548.913C178.441 549.148 179.013 549.268 179.593 549.266H390.662C391.239 549.265 391.809 549.143 392.33 548.909C392.851 548.676 393.31 548.335 393.674 547.914C394.037 547.492 394.297 546.999 394.432 546.471C394.568 545.943 394.577 545.394 394.459 544.862L391.182 530.22C391.046 529.623 390.754 529.067 390.332 528.604C389.909 528.14 389.37 527.783 388.764 527.566C388.325 527.404 387.857 527.321 387.386 527.321H182.856C182.384 527.321 181.917 527.404 181.478 527.566C180.871 527.783 180.332 528.14 179.91 528.604C179.488 529.067 179.195 529.623 179.059 530.22L175.783 544.862C175.666 545.393 175.677 545.942 175.814 546.469C175.952 546.996 176.212 547.488 176.576 547.908Z" fill="#2F2E41"/>
<path d="M460.253 251.529H128.289C127.944 251.522 127.616 251.388 127.375 251.155C127.133 250.923 126.998 250.611 126.998 250.287C126.998 249.962 127.133 249.65 127.375 249.418C127.616 249.186 127.944 249.052 128.289 249.045H460.253C460.598 249.052 460.927 249.186 461.168 249.418C461.409 249.65 461.544 249.962 461.544 250.287C461.544 250.611 461.409 250.923 461.168 251.155C460.927 251.388 460.598 251.522 460.253 251.529Z" fill="#3F3D56"/>
<path d="M150.886 242.703C155.159 242.703 158.623 239.372 158.623 235.262C158.623 231.153 155.159 227.821 150.886 227.821C146.614 227.821 143.15 231.153 143.15 235.262C143.15 239.372 146.614 242.703 150.886 242.703Z" fill="#3F3D56"/>
<path d="M177.613 242.703C181.886 242.703 185.349 239.372 185.349 235.262C185.349 231.153 181.886 227.821 177.613 227.821C173.34 227.821 169.876 231.153 169.876 235.262C169.876 239.372 173.34 242.703 177.613 242.703Z" fill="#3F3D56"/>
<path d="M204.339 242.703C208.612 242.703 212.076 239.372 212.076 235.262C212.076 231.153 208.612 227.821 204.339 227.821C200.066 227.821 196.603 231.153 196.603 235.262C196.603 239.372 200.066 242.703 204.339 242.703Z" fill="#3F3D56"/>
<path d="M444.159 229.662H425.177C424.802 229.67 424.445 229.816 424.182 230.068C423.92 230.321 423.773 230.66 423.773 231.013C423.773 231.366 423.92 231.705 424.182 231.958C424.445 232.211 424.802 232.357 425.177 232.365H444.159C444.537 232.36 444.897 232.215 445.162 231.962C445.427 231.709 445.576 231.368 445.576 231.013C445.576 230.658 445.427 230.317 445.162 230.064C444.897 229.811 444.537 229.667 444.159 229.662Z" fill="#3F3D56"/>
<path d="M444.16 234.738H425.177C424.802 234.746 424.444 234.892 424.181 235.144C423.919 235.397 423.772 235.736 423.772 236.09C423.772 236.443 423.919 236.782 424.181 237.035C424.444 237.288 424.802 237.433 425.177 237.441H444.16C444.538 237.437 444.899 237.293 445.164 237.04C445.43 236.787 445.579 236.445 445.579 236.09C445.579 235.734 445.43 235.393 445.164 235.14C444.899 234.887 444.538 234.742 444.16 234.738Z" fill="#3F3D56"/>
<path d="M444.159 239.814H425.177C424.802 239.822 424.445 239.969 424.182 240.221C423.92 240.474 423.773 240.813 423.773 241.166C423.773 241.519 423.92 241.858 424.182 242.111C424.445 242.363 424.802 242.509 425.177 242.518H444.159C444.537 242.513 444.897 242.368 445.162 242.115C445.427 241.862 445.576 241.521 445.576 241.166C445.576 240.811 445.427 240.47 445.162 240.217C444.897 239.964 444.537 239.819 444.159 239.814Z" fill="#3F3D56"/>
<path d="M901.793 539.566C902.365 541.135 903.452 542.493 904.896 543.445C906.341 544.397 908.069 544.894 909.832 544.864L944.276 544.03C946.052 543.997 947.769 543.425 949.171 542.398C950.572 541.371 951.583 539.945 952.052 538.333L956.926 489.298C958.655 490.035 960.538 490.399 962.436 490.363C964.085 490.324 965.71 489.98 967.218 489.35C968.725 488.72 970.086 487.817 971.223 486.693C972.36 485.568 973.25 484.244 973.843 482.796C974.436 481.347 974.72 479.803 974.678 478.252C974.637 476.701 974.271 475.172 973.602 473.753C972.932 472.335 971.973 471.054 970.777 469.985C969.582 468.915 968.174 468.078 966.635 467.52C965.096 466.962 963.455 466.695 961.805 466.734C961.047 466.732 960.29 466.806 959.548 466.955C958.741 466.134 957.761 465.481 956.669 465.038C955.578 464.595 954.4 464.372 953.211 464.383L900.228 465.67C899.789 465.685 899.352 465.736 898.922 465.823C897.76 466.026 896.658 466.462 895.69 467.1C894.722 467.738 893.91 468.564 893.31 469.522C892.71 470.48 892.334 471.547 892.209 472.653C892.084 473.759 892.213 474.877 892.586 475.932L901.793 539.566ZM957.925 485.968L961.394 474.283C961.788 472.933 961.798 471.509 961.42 470.155C961.589 470.155 961.737 470.08 961.905 470.079C964.284 470.033 966.584 470.876 968.303 472.423C970.021 473.97 971.018 476.096 971.074 478.333C971.129 480.57 970.24 482.737 968.6 484.358C966.96 485.979 964.704 486.922 962.326 486.981C960.789 487.026 959.267 486.676 957.925 485.968Z" fill="#2F2E41"/>
<path d="M898.922 465.823C900.05 471.895 912.741 476.164 928.001 475.422C942.033 474.813 953.507 470.178 955.609 464.683C954.831 464.467 954.022 464.366 953.211 464.383L900.229 465.67C899.789 465.685 899.352 465.736 898.922 465.823Z" fill="#3F3D56"/>
<path d="M930.798 512.621C930.867 512.604 930.934 512.577 930.994 512.539L938.474 507.933C938.564 507.878 938.639 507.802 938.69 507.713C938.742 507.623 938.769 507.523 938.769 507.422C938.769 507.32 938.742 507.22 938.69 507.131C938.639 507.042 938.565 506.966 938.474 506.91L930.7 502.119C930.628 502.075 930.548 502.044 930.464 502.029C930.38 502.014 930.294 502.014 930.21 502.03C930.126 502.047 930.047 502.078 929.976 502.123C929.905 502.169 929.845 502.227 929.798 502.294C929.751 502.361 929.719 502.437 929.703 502.516C929.687 502.595 929.688 502.676 929.705 502.755C929.723 502.834 929.757 502.908 929.805 502.975C929.854 503.041 929.915 503.098 929.987 503.142L936.931 507.421L930.282 511.516C930.154 511.595 930.059 511.715 930.015 511.854C929.971 511.992 929.981 512.141 930.043 512.274C930.105 512.406 930.214 512.514 930.353 512.577C930.491 512.641 930.649 512.656 930.798 512.621H930.798Z" fill="#6C63FF"/>
<path d="M918.983 513.133C919.109 513.103 919.222 513.039 919.308 512.948C919.395 512.857 919.45 512.744 919.468 512.624C919.486 512.503 919.464 512.38 919.407 512.271C919.35 512.161 919.26 512.07 919.147 512.01L912.252 508.291L918.917 503.634C918.985 503.586 919.043 503.526 919.087 503.457C919.13 503.388 919.159 503.312 919.172 503.232C919.184 503.153 919.18 503.072 919.159 502.994C919.138 502.916 919.101 502.843 919.051 502.779C919 502.714 918.936 502.66 918.863 502.619C918.789 502.577 918.708 502.55 918.624 502.538C918.539 502.527 918.453 502.531 918.371 502.55C918.288 502.57 918.21 502.605 918.142 502.652L910.68 507.867C910.594 507.927 910.525 508.007 910.479 508.099C910.433 508.191 910.412 508.292 910.419 508.394C910.425 508.495 910.458 508.593 910.515 508.679C910.572 508.766 910.651 508.837 910.744 508.888L918.5 513.071C918.647 513.15 918.82 513.172 918.983 513.133Z" fill="#6C63FF"/>
<path d="M930.054 516.657C930.117 516.642 930.177 516.619 930.232 516.586C930.305 516.545 930.368 516.49 930.419 516.425C930.469 516.36 930.506 516.287 930.526 516.209C930.546 516.131 930.55 516.05 930.537 515.97C930.524 515.891 930.494 515.815 930.45 515.746L919.846 499.345C919.756 499.206 919.612 499.107 919.444 499.069C919.277 499.031 919.1 499.057 918.953 499.141C918.806 499.226 918.7 499.361 918.659 499.519C918.618 499.676 918.646 499.843 918.735 499.981L929.339 516.383C929.411 516.494 929.52 516.581 929.648 516.631C929.777 516.68 929.919 516.689 930.054 516.657Z" fill="#6C63FF"/>
<path d="M333.935 319.05H276.48C274.136 319.05 272.236 320.838 272.236 323.043V328.324C272.236 330.529 274.136 332.317 276.48 332.317H333.935C336.279 332.317 338.179 330.529 338.179 328.324V323.043C338.179 320.838 336.279 319.05 333.935 319.05Z" fill="#6C63FF"/>
<path d="M367.426 345.584H242.989C240.645 345.584 238.745 347.371 238.745 349.577V354.858C238.745 357.063 240.645 358.85 242.989 358.85H367.426C369.77 358.85 371.67 357.063 371.67 354.858V349.577C371.67 347.371 369.77 345.584 367.426 345.584Z" fill="#E6E6E6"/>
<path d="M367.426 372.117H242.989C240.645 372.117 238.745 373.905 238.745 376.11V381.391C238.745 383.596 240.645 385.384 242.989 385.384H367.426C369.77 385.384 371.67 383.596 371.67 381.391V376.11C371.67 373.905 369.77 372.117 367.426 372.117Z" fill="#E6E6E6"/>
<path d="M377.974 460.967L378.256 461.804L378.271 461.832L386.755 486.099L396.514 514.063L414.876 566.614L415.054 574.777V574.805L416.418 640.474L412.636 649.376L416.893 663.972C416.893 663.972 414.935 641.909 404.434 654.579C398.487 661.78 391.531 669.147 385.82 676.055C394.141 679.222 402.595 682.088 411.183 684.65C413.037 685.209 414.906 685.739 416.774 686.269C417.175 686.381 417.575 686.492 417.976 686.604C446.443 694.524 475.872 698.975 505.543 699.847C507.086 699.888 508.599 699.916 510.067 699.944C510.586 699.958 511.091 699.972 511.595 699.972C513.256 699.986 514.902 700 516.563 700C519.915 700 523.253 699.954 526.575 699.861C551.165 699.209 575.612 696.098 599.503 690.581C599.34 681.301 598.895 670.459 598.258 658.877C597.961 653.198 591.301 647.044 590.901 641.1C590.619 636.634 596.596 632.434 596.285 627.899C594.268 599.977 591.746 610.695 589.878 590.922C589.685 588.983 589.507 587.127 589.344 585.355C588.142 572.656 587.312 564.716 587.312 564.716L595.291 517.398L607.824 443.106L606.86 441.613L605.777 441.111L539.672 410.328L536.082 401.676C535.036 399.184 533.222 397.043 530.872 395.528C528.522 394.014 525.745 393.195 522.897 393.178L479.35 393.011C477.09 393.001 474.861 393.499 472.846 394.462C470.831 395.426 469.09 396.827 467.766 398.55L455.975 413.914L377.974 460.967Z" fill="#3F3D56"/>
<path d="M424.917 554.921L415.054 574.777L408.32 588.341L396.737 645.399L390.937 651.19L385.969 630.69L333.965 641.553C332.259 632.637 333.508 641.855 332.455 632.073C332.752 631.794 333.063 631.515 333.375 631.236C334.205 630.51 334.902 629.826 334.887 629.171C334.294 595.429 336.074 538.008 350.936 503.22C353.263 497.54 356.332 492.155 360.072 487.187C360.369 486.81 360.65 486.434 360.932 486.057C367.785 477.028 372.116 468.14 378.256 461.819V461.805C378.294 461.776 378.329 461.743 378.36 461.707C378.382 461.696 378.402 461.682 378.419 461.665L420.601 440.622L422.411 488.457L423.701 522.84L424.917 554.921Z" fill="#3F3D56"/>
<path d="M577.017 560.56L589.338 585.361L593.638 593.998L605.218 651.052L610.999 656.828L615.979 636.333L618.319 635.881L660.52 627.658L672.821 664.412C675.593 660.066 676.685 654.953 675.913 649.937C675.14 644.92 672.55 640.309 668.581 636.882C667.741 636.167 667.041 635.471 667.061 634.813C667.761 595.127 665.181 522.663 641.88 492.838C634.479 483.373 630.039 473.946 623.579 467.36C623.559 467.341 623.559 467.322 623.539 467.322L607.818 443.104L606.858 441.618L605.778 441.11L577.017 560.56Z" fill="#3F3D56"/>
<path d="M502.381 381.351C534.377 381.351 560.315 356.949 560.315 326.846C560.315 296.744 534.377 272.342 502.381 272.342C470.386 272.342 444.448 296.744 444.448 326.846C444.448 356.949 470.386 381.351 502.381 381.351Z" fill="#FFB6B6"/>
<path d="M580.685 288.775C580.236 288.324 579.695 287.962 579.094 287.712C578.493 287.462 577.845 287.328 577.188 287.319L578.059 285.044C578.343 284.328 578.42 283.553 578.281 282.799C578.142 282.045 577.793 281.34 577.269 280.755C576.745 280.17 576.066 279.726 575.3 279.47C574.534 279.213 573.709 279.153 572.91 279.295L569.738 279.87L570.037 277.876C570.151 277.133 570.059 276.376 569.767 275.677C569.476 274.978 568.997 274.363 568.376 273.892C567.756 273.42 567.016 273.109 566.229 272.988C565.441 272.867 564.634 272.942 563.887 273.203C563.207 273.455 562.476 273.561 561.747 273.512C561.018 273.463 560.31 273.262 559.674 272.922C559.036 272.593 558.482 272.136 558.051 271.585C557.62 271.034 557.322 270.4 557.178 269.729L556.073 264.714L555.956 264.445C550.573 256.005 540.224 249.864 527.56 247.613C516.288 245.595 504.729 246.623 493.587 247.589C489.166 247.98 484.173 248.421 480.013 250.818C476.476 252.873 473.486 256.983 474.097 261.13C463.111 257.962 451.331 264.286 445.493 272.261C438.576 281.754 437.445 293.643 437.263 302.94C436.769 324.934 441.593 342.927 451.565 356.432C452.293 357.41 452.475 359.453 453.918 360.138L453.619 359.685C455.232 360.444 456.87 361.667 456.259 362.976C454.503 366.743 466.166 375.074 474.383 377.826C489.374 382.853 509.306 382.425 523.322 380.615L523.816 377.496C528.873 376.847 532.436 375.612 533.437 373.679C535.205 372.26 536.713 370.988 538.026 369.814L538.039 369.801C538.065 369.777 538.117 369.74 538.143 369.716C544.475 364.003 545.944 360.75 546.608 355.796C547.245 350.939 546.114 346.01 544.956 341.569C569.322 345.117 535.361 317.154 558.062 311.747C558.322 311.672 558.587 311.61 558.855 311.564C559.518 311.417 560.181 311.27 560.818 311.099C563.889 310.315 566.83 309.133 569.556 307.588C575.9 303.955 577.994 299.136 581.27 293.705C581.743 292.931 581.941 292.036 581.836 291.15C581.731 290.263 581.327 289.431 580.685 288.775Z" fill="#2F2E41"/>
<path d="M707.283 564.441C707.27 566.582 707.244 569.579 707.14 573.285C707.127 573.799 707.114 574.325 707.101 574.863C706.932 581.676 706.763 587.389 706.49 593.737C706.477 594.178 706.463 594.606 706.437 595.046C706.073 603.902 705.501 614.214 704.513 630.544C702.68 660.709 699.482 634.691 696.27 645.272C696.114 645.798 695.945 646.422 695.789 647.156C695.303 649.818 694.482 652.418 693.345 654.898C691.641 655.853 689.886 656.77 688.157 657.688C683.229 660.268 678.224 662.752 673.179 665.112C670.345 666.434 667.497 667.73 664.637 668.978C664.182 669.174 663.74 669.369 663.298 669.553C648.65 675.927 633.554 681.346 618.117 685.773C615.101 686.629 612.097 687.461 609.055 688.231C605.882 689.063 602.71 689.846 599.499 690.58C575.608 696.098 551.162 699.21 526.572 699.864C523.257 699.962 519.915 699.999 516.561 699.999C514.896 699.999 513.258 699.987 511.594 699.974C511.087 699.974 510.58 699.962 510.073 699.95C508.604 699.913 507.082 699.889 505.548 699.852C475.877 698.981 446.447 694.529 417.982 686.605L416.773 686.274C414.9 685.736 413.041 685.21 411.182 684.647C402.601 682.091 394.145 679.229 385.816 676.06C379.458 673.651 373.174 671.065 366.963 668.305C366.906 668.291 366.853 668.266 366.807 668.232C365.507 667.669 364.194 667.082 362.894 666.482C362.725 666.397 362.542 666.311 362.36 666.226C357.511 663.999 352.713 661.667 347.968 659.229C343.976 650.605 338.359 648.954 334.875 641.37C333.861 639.116 333.128 636.76 332.691 634.348C332.691 634.324 332.678 634.299 332.678 634.263C333.042 638.813 331.13 626.189 332.665 634.214C332.652 634.067 332.639 633.908 332.626 633.724C332.587 633.284 332.535 632.746 332.457 632.073C327.997 591.107 328.283 544.258 326.346 505.653C326.216 503.157 326.081 500.768 325.943 498.485C325.904 497.726 325.852 496.98 325.8 496.246C325.891 496.026 325.995 495.794 326.112 495.573C326.137 495.51 326.167 495.449 326.203 495.39C326.241 495.314 326.285 495.24 326.333 495.17C326.359 495.133 326.398 495.084 326.424 495.047C326.443 495.005 326.464 494.965 326.489 494.925C326.606 494.754 326.736 494.57 326.879 494.399C326.944 494.326 326.996 494.264 327.061 494.203C327.106 494.141 327.158 494.083 327.217 494.032C327.257 493.973 327.305 493.92 327.36 493.873C327.412 493.824 327.464 493.763 327.529 493.702C327.557 493.663 327.592 493.63 327.633 493.604C327.736 493.493 327.849 493.391 327.971 493.298C328.435 492.897 328.93 492.529 329.453 492.197C329.635 492.087 329.83 491.977 330.012 491.855C331.323 491.117 332.702 490.495 334.134 489.996C334.628 489.824 335.122 489.665 335.655 489.494C335.85 489.445 336.032 489.384 336.227 489.323C336.513 489.237 336.799 489.152 337.098 489.09C338.58 488.674 340.18 488.32 341.909 487.989C342.117 487.953 342.338 487.916 342.559 487.867C342.871 487.806 343.196 487.757 343.521 487.708C343.963 487.635 344.418 487.561 344.873 487.488C348.735 486.913 353.116 486.485 357.953 486.204C358.408 486.179 358.863 486.155 359.318 486.13C359.851 486.106 360.384 486.081 360.93 486.057C361.385 486.032 361.853 486.02 362.321 486.008C362.777 485.983 363.245 485.971 363.726 485.959C365.039 485.922 366.391 485.886 367.769 485.861C371.696 485.788 375.83 485.812 380.173 485.898C382.188 485.947 384.242 485.996 386.349 486.081C386.492 486.081 386.622 486.093 386.752 486.093C388.585 486.155 390.431 486.228 392.329 486.326C393.656 486.387 394.995 486.448 396.334 486.522C397.595 486.595 398.869 486.668 400.156 486.754C401.158 486.803 402.159 486.876 403.173 486.937C404.031 486.999 404.889 487.06 405.747 487.109L406.917 487.182C407.554 487.231 408.191 487.268 408.842 487.329C410.272 487.439 411.702 487.549 413.158 487.659C414.601 487.782 416.07 487.904 417.54 488.026C419.009 488.148 420.491 488.283 421.973 488.418C422.129 488.43 422.272 488.442 422.415 488.454C423.767 488.589 425.12 488.711 426.485 488.846C426.797 488.87 427.122 488.895 427.434 488.931C428.736 489.054 430.062 489.198 431.376 489.33C431.779 489.371 432.18 489.41 432.584 489.452C433.613 489.557 434.628 489.649 435.664 489.763C437.029 489.91 438.42 490.044 439.772 490.216C440.826 490.326 441.879 490.436 442.932 490.558C444.583 490.742 446.26 490.937 447.937 491.145C448.575 491.219 449.212 491.292 449.849 491.378C454.633 491.94 459.47 492.564 464.385 493.213C471.835 494.203 479.402 495.28 487.021 496.442C494.653 497.604 502.328 498.831 510.047 500.124C511.997 500.454 513.947 500.784 515.91 501.127C516.795 501.286 517.679 501.445 518.563 501.604C520.071 501.861 521.579 502.13 523.087 502.399C524.596 502.668 526.104 502.937 527.612 503.219C529.406 503.549 531.213 503.879 533.008 504.209C544.826 506.411 556.58 508.76 568.047 511.218C569.932 511.622 571.818 512.038 573.69 512.442C577.434 513.261 581.144 514.093 584.819 514.937C585.834 515.157 586.835 515.39 587.836 515.622C590.332 516.209 592.828 516.796 595.286 517.396L595.715 517.506C597.522 517.922 599.29 518.35 601.059 518.79C605.232 519.818 609.336 520.857 613.371 521.909C616.049 522.607 618.698 523.312 621.315 524.026C625.229 525.09 629.064 526.166 632.796 527.255C633.719 527.524 634.642 527.793 635.552 528.05C638.282 528.845 640.974 529.652 643.587 530.46C645.667 531.096 647.696 531.744 649.698 532.393C651.7 533.041 653.663 533.689 655.588 534.337C656.823 534.753 658.045 535.194 659.267 535.61C661.022 536.221 662.752 536.833 664.442 537.444C664.962 537.628 665.469 537.824 665.976 538.007C666.301 538.142 666.613 538.252 666.925 538.374C667.536 538.606 668.16 538.827 668.758 539.059C669.37 539.279 669.968 539.512 670.566 539.756C671.151 539.976 671.749 540.209 672.321 540.441C672.906 540.661 673.478 540.894 674.05 541.139C674.531 541.322 674.999 541.518 675.454 541.713C676.377 542.093 677.301 542.472 678.198 542.863C678.64 543.059 679.082 543.242 679.524 543.438L680.538 543.879C680.681 543.952 680.824 544.013 680.967 544.074C681.292 544.221 681.63 544.38 681.955 544.527C682.709 544.857 683.45 545.212 684.178 545.542C685.154 546.007 686.103 546.472 687.013 546.924C687.936 547.389 688.833 547.854 689.691 548.307C689.834 548.38 689.964 548.453 690.107 548.527C690.302 548.625 690.497 548.735 690.692 548.833C691.355 549.187 691.992 549.554 692.63 549.909C693.878 550.631 695.061 551.34 696.166 552.05C696.413 552.209 696.647 552.368 696.894 552.514C697.713 553.065 698.493 553.603 699.221 554.154C699.221 554.166 699.221 554.166 699.234 554.166C699.481 554.337 699.715 554.521 699.95 554.692C700.145 554.863 700.353 555.01 700.548 555.181C701.224 555.732 701.848 556.257 702.42 556.796C702.612 556.962 702.794 557.137 702.966 557.322C703.042 557.381 703.111 557.446 703.174 557.517C703.434 557.762 703.668 558.007 703.889 558.251C703.923 558.285 703.954 558.322 703.98 558.361C704.292 558.704 704.578 559.047 704.851 559.389C704.981 559.56 705.124 559.732 705.241 559.903C705.397 560.111 705.553 560.331 705.683 560.539C705.8 560.71 705.904 560.894 706.008 561.065C706.284 561.506 706.519 561.968 706.71 562.447C706.857 562.772 706.974 563.107 707.061 563.45C707.16 563.775 707.234 564.106 707.283 564.441Z" fill="#2F2E41"/>
<path opacity="0.2" d="M707.283 564.441C707.27 566.582 707.244 569.579 707.14 573.285C707.127 573.799 707.101 574.325 707.088 574.863C706.958 580.062 706.763 586.484 706.49 593.737C706.477 594.178 706.463 594.606 706.437 595.046C706.073 603.902 705.501 614.214 704.513 630.544C702.68 660.709 699.482 634.691 696.27 645.272C687.351 640.11 677.574 634.703 667.12 629.15C665.235 628.147 663.332 627.14 661.413 626.128C640.506 615.156 617.155 603.658 592.777 592.269C591.814 591.817 590.839 591.364 589.877 590.924C534.035 564.955 473.083 539.695 423.702 522.839C414.172 519.585 405.071 516.65 396.516 514.069C378.496 508.65 362.919 504.858 350.932 503.219C338.45 501.506 329.83 502.118 326.346 505.653C326.216 503.157 326.081 500.768 325.943 498.485C325.891 497.726 325.839 496.98 325.787 496.246C325.867 496.045 325.971 495.853 326.072 495.659C326.087 495.631 326.097 495.601 326.112 495.573C326.137 495.51 326.167 495.449 326.203 495.39C326.241 495.314 326.284 495.24 326.333 495.17C326.375 495.083 326.427 495.001 326.489 494.925C326.606 494.754 326.736 494.57 326.879 494.399C326.984 494.271 327.097 494.148 327.217 494.032C327.257 493.973 327.305 493.92 327.36 493.873C327.412 493.824 327.464 493.763 327.529 493.702C327.557 493.663 327.592 493.63 327.633 493.604C327.736 493.493 327.849 493.391 327.971 493.298C328.435 492.897 328.93 492.529 329.453 492.197C329.635 492.087 329.83 491.977 330.012 491.855C331.322 491.117 332.702 490.495 334.134 489.996C334.628 489.824 335.122 489.665 335.655 489.494C335.85 489.445 336.032 489.384 336.227 489.323C336.513 489.237 336.799 489.152 337.098 489.09C338.58 488.674 340.179 488.32 341.909 487.989C342.429 487.892 342.975 487.794 343.521 487.708C343.963 487.635 344.418 487.561 344.873 487.488C348.735 486.913 353.116 486.485 357.953 486.203C358.408 486.179 358.863 486.155 359.318 486.13C359.851 486.106 360.384 486.081 360.93 486.057C361.385 486.032 361.853 486.02 362.321 486.008C362.776 485.983 363.245 485.971 363.726 485.959C365.039 485.922 366.391 485.885 367.769 485.861C371.696 485.8 375.83 485.824 380.173 485.91C382.188 485.947 384.242 486.008 386.349 486.093C386.479 486.093 386.622 486.106 386.752 486.106C388.585 486.155 390.444 486.24 392.329 486.326C393.656 486.387 394.995 486.448 396.334 486.522C397.595 486.595 398.869 486.668 400.156 486.754C401.157 486.803 402.159 486.876 403.173 486.937C404.031 486.999 404.889 487.06 405.747 487.109C406.774 487.182 407.801 487.256 408.841 487.329C410.272 487.439 411.702 487.549 413.158 487.659C414.601 487.781 416.07 487.904 417.54 488.026C419.009 488.148 420.491 488.283 421.973 488.418C422.129 488.43 422.272 488.442 422.415 488.454C423.767 488.589 425.12 488.711 426.485 488.846C434.052 489.567 441.84 490.411 449.849 491.378C454.633 491.953 459.479 492.568 464.385 493.225C471.835 494.216 479.402 495.292 487.021 496.442C494.653 497.604 502.328 498.831 510.047 500.124C511.997 500.454 513.947 500.784 515.91 501.127C518.303 501.543 520.695 501.967 523.087 502.399C524.596 502.668 526.104 502.937 527.612 503.219C529.406 503.549 531.214 503.879 533.008 504.209C544.826 506.411 556.58 508.76 568.047 511.218C569.933 511.622 571.818 512.038 573.69 512.442C577.435 513.261 581.144 514.093 584.819 514.937C585.834 515.169 586.835 515.402 587.836 515.634C590.345 516.221 592.829 516.809 595.286 517.396V517.408C595.429 517.432 595.572 517.469 595.715 517.506C597.509 517.934 599.29 518.362 601.059 518.802C605.232 519.83 609.336 520.866 613.371 521.909C616.05 522.619 618.702 523.316 621.315 524.026C625.229 525.102 629.064 526.178 632.796 527.255C633.719 527.524 634.642 527.793 635.552 528.05C638.283 528.857 640.961 529.661 643.587 530.46C645.667 531.096 647.696 531.744 649.698 532.392C651.7 533.041 653.663 533.689 655.588 534.337C656.836 534.753 658.058 535.181 659.267 535.597C661.035 536.209 662.752 536.821 664.442 537.444C664.962 537.628 665.469 537.824 665.976 538.007C666.925 538.35 667.848 538.704 668.758 539.059C669.37 539.279 669.968 539.512 670.566 539.756C671.151 539.976 671.749 540.209 672.321 540.441C672.906 540.661 673.478 540.894 674.05 541.139C674.531 541.322 674.999 541.518 675.454 541.713C676.378 542.093 677.301 542.472 678.198 542.863C678.64 543.059 679.082 543.243 679.524 543.438L680.538 543.879C680.681 543.952 680.824 544.013 680.967 544.074C682.072 544.564 683.138 545.053 684.178 545.542C685.154 546.007 686.103 546.472 687.013 546.924C688.092 547.463 689.119 547.989 690.107 548.527C690.302 548.625 690.497 548.735 690.692 548.833C691.355 549.187 691.992 549.554 692.63 549.909C693.878 550.631 695.061 551.34 696.166 552.05C697.258 552.759 698.272 553.456 699.221 554.154C699.221 554.166 699.221 554.166 699.234 554.166C699.69 554.508 700.132 554.851 700.548 555.181C701.224 555.732 701.848 556.257 702.42 556.796C702.612 556.962 702.794 557.137 702.966 557.322C703.042 557.381 703.111 557.446 703.174 557.518C703.447 557.799 703.72 558.08 703.98 558.362C704.292 558.704 704.578 559.046 704.851 559.389C704.981 559.56 705.124 559.731 705.241 559.903C705.397 560.111 705.553 560.331 705.683 560.539C705.8 560.71 705.904 560.894 706.008 561.065C706.284 561.506 706.519 561.968 706.711 562.447C706.853 562.773 706.97 563.108 707.062 563.45C707.16 563.775 707.234 564.106 707.283 564.441Z" fill="black"/>
<path d="M683.716 65.322C702.888 65.322 718.431 50.6992 718.431 32.661C718.431 14.6228 702.888 0 683.716 0C664.543 0 649 14.6228 649 32.661C649 50.6992 664.543 65.322 683.716 65.322Z" fill="#F2F2F2"/>
</g>
<defs>
<clipPath id="clip0_1_113">
<rect width="1023" height="700" fill="white"/>
</clipPath>
</defs>
</svg>
