<svg width="218" height="75" viewBox="0 0 218 75" fill="none" xmlns="http://www.w3.org/2000/svg">
<path d="M0 20C0 8.9543 8.95431 0 20 0H198C209.046 0 218 8.95431 218 20V55C218 66.0457 209.046 75 198 75H20C8.9543 75 0 66.0457 0 55V20Z" fill="#2C2C3C"/>
<path d="M64.3619 21.0152C65.5059 21.0152 66.7232 21.1472 68.0139 21.4112C69.3339 21.6458 70.5952 22.0418 71.7979 22.5992C73.0299 23.1272 74.0565 23.8165 74.8779 24.6672L72.5459 27.3952C71.6365 26.6618 70.7859 26.0605 69.9939 25.5912C69.2019 25.1218 68.3659 24.7698 67.4859 24.5352C66.6352 24.3005 65.5939 24.1832 64.3619 24.1832C62.4259 24.1832 60.7832 24.5498 59.4339 25.2832C58.1139 26.0165 57.0285 27.0138 56.1779 28.2752C55.3565 29.5365 54.7552 30.9592 54.3739 32.5432C53.9925 34.1272 53.8019 35.7698 53.8019 37.4712C53.8019 39.0845 53.9779 40.6832 54.3299 42.2672C54.6819 43.8218 55.2539 45.2445 56.0459 46.5352C56.8379 47.8258 57.8792 48.8525 59.1699 49.6152C60.4605 50.3778 62.0445 50.7592 63.9219 50.7592C65.4765 50.7592 66.8112 50.4218 67.9259 49.7472C69.0699 49.0432 69.9499 48.1045 70.5659 46.9312C71.2112 45.7285 71.5339 44.3792 71.5339 42.8832V39.9792H63.6579L64.1859 36.9872H75.6699V46.1832C75.6699 47.3858 75.7139 48.6032 75.8019 49.8352C75.9192 51.0672 76.0072 52.2845 76.0659 53.4872H73.8659L72.4579 50.1432C71.1672 51.5218 69.7739 52.5192 68.2779 53.1352C66.8112 53.7218 65.1245 54.0152 63.2179 54.0152C60.9005 54.0152 58.8765 53.5898 57.1459 52.7392C55.4445 51.8592 54.0219 50.6712 52.8779 49.1752C51.7339 47.6498 50.8832 45.9192 50.3259 43.9832C49.7685 42.0472 49.4899 40.0085 49.4899 37.8672C49.4899 35.5205 49.7979 33.3352 50.4139 31.3112C51.0299 29.2578 51.9539 27.4685 53.1859 25.9432C54.4179 24.3885 55.9579 23.1858 57.8059 22.3352C59.6832 21.4552 61.8685 21.0152 64.3619 21.0152ZM121.004 38.2832C121.004 41.2232 120.5 43.8412 119.492 46.1372C118.512 48.4052 117 50.1972 114.956 51.5132C112.912 52.8292 110.308 53.4872 107.144 53.4872H97.1901V25.6832C97.1901 25.6552 97.1341 25.4312 97.0221 25.0112C96.9381 24.5912 96.8541 24.1572 96.7701 23.7092C96.6861 23.2612 96.6301 22.9952 96.6021 22.9112H104.456C107.004 22.9112 109.3 23.2052 111.344 23.7932C113.388 24.3532 115.124 25.2492 116.552 26.4812C118.008 27.6852 119.114 29.2672 119.87 31.2272C120.626 33.1592 121.004 35.5112 121.004 38.2832ZM116.93 38.1992C116.93 35.9872 116.65 34.0972 116.09 32.5292C115.558 30.9612 114.746 29.6872 113.654 28.7072C112.59 27.6992 111.26 26.9712 109.664 26.5232C108.096 26.0472 106.262 25.8092 104.162 25.8092H101.096V50.5892H106.64C109.188 50.5892 111.204 50.0292 112.688 48.9092C114.2 47.7892 115.278 46.2912 115.922 44.4152C116.594 42.5392 116.93 40.4672 116.93 38.1992ZM135.905 29.0552C137.825 29.0552 139.441 29.4552 140.753 30.2552C142.065 31.0232 143.041 32.1112 143.681 33.5192C144.353 34.8952 144.689 36.5112 144.689 38.3672C144.689 38.8152 144.657 39.2792 144.593 39.7592C144.561 40.2072 144.513 40.6872 144.449 41.1992H129.281C129.281 44.2392 129.953 46.5912 131.297 48.2552C132.641 49.9192 134.433 50.7512 136.673 50.7512C137.601 50.7512 138.561 50.6072 139.553 50.3192C140.577 50.0312 141.633 49.5992 142.721 49.0232L144.209 51.4232C143.089 52.3192 141.825 52.9912 140.417 53.4392C139.009 53.8872 137.585 54.1112 136.145 54.1112C134.257 54.1112 132.609 53.7752 131.201 53.1032C129.825 52.3992 128.673 51.4712 127.745 50.3192C126.849 49.1352 126.177 47.8072 125.729 46.3352C125.281 44.8632 125.057 43.3592 125.057 41.8232C125.057 40.2232 125.281 38.6712 125.729 37.1672C126.177 35.6632 126.849 34.3032 127.745 33.0872C128.673 31.8392 129.809 30.8632 131.153 30.1592C132.497 29.4232 134.081 29.0552 135.905 29.0552ZM135.521 32.0792C134.433 32.0792 133.473 32.3832 132.641 32.9912C131.809 33.5992 131.137 34.3832 130.625 35.3432C130.113 36.2712 129.761 37.2312 129.569 38.2232H140.513C140.545 36.8792 140.353 35.7592 139.937 34.8632C139.553 33.9352 138.977 33.2472 138.209 32.7992C137.473 32.3192 136.577 32.0792 135.521 32.0792ZM151.464 29.6312L156.648 44.4152C156.872 45.0232 157.08 45.6152 157.272 46.1912C157.464 46.7672 157.656 47.4552 157.848 48.2552C158.04 47.4872 158.216 46.8312 158.376 46.2872C158.568 45.7112 158.76 45.1512 158.952 44.6072L164.184 29.6312H167.928L159.384 53.7752H155.736L147.24 29.6312H151.464Z" fill="#F1727A"/>
<path d="M80.4993 39.1352H91.5873V42.7352H80.4993V39.1352Z" fill="#BD8FE4"/>
<path d="M20.168 36.7112L44.072 26.3432V30.0392L24.632 38.5352L44.072 47.0312V50.6792L20.168 40.2152V36.7112Z" fill="#87D4F4"/>
<path d="M196.832 38.5829L172.928 28.2149V31.9109L192.368 40.4069L172.928 48.9029V52.5509L196.832 42.0869V38.5829Z" fill="#87D4F4"/>
</svg>
