<svg width="115" height="120" viewBox="0 0 115 120" fill="none" xmlns="http://www.w3.org/2000/svg">
<path d="M0 20C0 8.95431 8.95431 0 20 0H95C106.046 0 115 8.95431 115 20V100C115 111.046 106.046 120 95 120H20C8.95431 120 0 111.046 0 100V20Z" fill="#2C2C3C"/>
<path d="M56.4388 22.152C58.9348 22.152 61.5908 22.44 64.4068 23.016C67.2868 23.528 70.0388 24.392 72.6628 25.608C75.3508 26.76 77.5908 28.264 79.3828 30.12L74.2948 36.072C72.3108 34.472 70.4548 33.16 68.7268 32.136C66.9988 31.112 65.1748 30.344 63.2548 29.832C61.3988 29.32 59.1268 29.064 56.4388 29.064C52.2148 29.064 48.6308 29.864 45.6868 31.464C42.8068 33.064 40.4388 35.24 38.5828 37.992C36.7908 40.744 35.4788 43.848 34.6468 47.304C33.8148 50.76 33.3988 54.344 33.3988 58.056C33.3988 61.576 33.7828 65.064 34.5508 68.52C35.3188 71.912 36.5668 75.016 38.2948 77.832C40.0228 80.648 42.2948 82.888 45.1108 84.552C47.9268 86.216 51.3828 87.048 55.4788 87.048C58.8708 87.048 61.7828 86.312 64.2148 84.84C66.7108 83.304 68.6308 81.256 69.9748 78.696C71.3828 76.072 72.0868 73.128 72.0868 69.864V63.528H54.9028L56.0548 57H81.1108V77.064C81.1108 79.688 81.2068 82.344 81.3988 85.032C81.6548 87.72 81.8468 90.376 81.9748 93H77.1748L74.1028 85.704C71.2868 88.712 68.2468 90.888 64.9828 92.232C61.7828 93.512 58.1028 94.152 53.9428 94.152C48.8868 94.152 44.4708 93.224 40.6948 91.368C36.9828 89.448 33.8788 86.856 31.3828 83.592C28.8868 80.264 27.0308 76.488 25.8148 72.264C24.5988 68.04 23.9908 63.592 23.9908 58.92C23.9908 53.8 24.6628 49.032 26.0068 44.616C27.3508 40.136 29.3668 36.232 32.0548 32.904C34.7428 29.512 38.1028 26.888 42.1348 25.032C46.2308 23.112 50.9988 22.152 56.4388 22.152Z" fill="#F1727A"/>
</svg>
