<svg width="218" height="78" viewBox="0 0 218 78" fill="none" xmlns="http://www.w3.org/2000/svg">
<path d="M0 20C0 8.9543 8.95431 0 20 0H198C209.046 0 218 8.95431 218 20V58C218 69.0457 209.046 78 198 78H20C8.9543 78 0 69.0457 0 58V20Z" fill="#2C2C3C"/>
<path d="M64.3619 25.528C65.5059 25.528 66.7232 25.66 68.0139 25.924C69.3339 26.1587 70.5952 26.5547 71.7979 27.112C73.0299 27.64 74.0565 28.3293 74.8779 29.18L72.5459 31.908C71.6365 31.1747 70.7859 30.5733 69.9939 30.104C69.2019 29.6347 68.3659 29.2827 67.4859 29.048C66.6352 28.8133 65.5939 28.696 64.3619 28.696C62.4259 28.696 60.7832 29.0627 59.4339 29.796C58.1139 30.5293 57.0285 31.5267 56.1779 32.788C55.3565 34.0493 54.7552 35.472 54.3739 37.056C53.9925 38.64 53.8019 40.2827 53.8019 41.984C53.8019 43.5973 53.9779 45.196 54.3299 46.78C54.6819 48.3347 55.2539 49.7573 56.0459 51.048C56.8379 52.3387 57.8792 53.3653 59.1699 54.128C60.4605 54.8907 62.0445 55.272 63.9219 55.272C65.4765 55.272 66.8112 54.9347 67.9259 54.26C69.0699 53.556 69.9499 52.6173 70.5659 51.444C71.2112 50.2413 71.5339 48.892 71.5339 47.396V44.492H63.6579L64.1859 41.5H75.6699V50.696C75.6699 51.8987 75.7139 53.116 75.8019 54.348C75.9192 55.58 76.0072 56.7973 76.0659 58H73.8659L72.4579 54.656C71.1672 56.0347 69.7739 57.032 68.2779 57.648C66.8112 58.2347 65.1245 58.528 63.2179 58.528C60.9005 58.528 58.8765 58.1027 57.1459 57.252C55.4445 56.372 54.0219 55.184 52.8779 53.688C51.7339 52.1627 50.8832 50.432 50.3259 48.496C49.7685 46.56 49.4899 44.5213 49.4899 42.38C49.4899 40.0333 49.7979 37.848 50.4139 35.824C51.0299 33.7707 51.9539 31.9813 53.1859 30.456C54.4179 28.9013 55.9579 27.6987 57.8059 26.848C59.6832 25.968 61.8685 25.528 64.3619 25.528ZM107.004 33.616C108.092 33.616 109.18 33.792 110.268 34.144C111.356 34.496 112.3 35.04 113.1 35.776C113.068 35.328 113.036 34.896 113.004 34.48C113.004 34.032 113.004 33.6 113.004 33.184V24.256L112.332 21.424H116.94V51.136C116.94 51.808 116.988 52.56 117.084 53.392C117.18 54.224 117.34 55.04 117.564 55.84C117.788 56.608 118.076 57.296 118.427 57.904L114.204 58.432C113.98 57.888 113.788 57.344 113.628 56.8C113.468 56.256 113.356 55.712 113.292 55.168C112.46 56.256 111.42 57.104 110.172 57.712C108.924 58.32 107.612 58.624 106.236 58.624C104.572 58.624 103.116 58.272 101.868 57.568C100.62 56.864 99.5795 55.92 98.7475 54.736C97.9475 53.52 97.3395 52.192 96.9235 50.752C96.5395 49.28 96.3475 47.792 96.3475 46.288C96.3475 44.656 96.5555 43.088 96.9715 41.584C97.4195 40.048 98.0755 38.688 98.9395 37.504C99.8355 36.32 100.956 35.376 102.3 34.672C103.644 33.968 105.212 33.616 107.004 33.616ZM107.1 36.88C105.852 36.88 104.796 37.152 103.932 37.696C103.1 38.24 102.428 38.96 101.916 39.856C101.436 40.752 101.084 41.744 100.86 42.832C100.668 43.888 100.572 44.944 100.572 46C100.572 47.088 100.684 48.176 100.908 49.264C101.164 50.32 101.548 51.296 102.06 52.192C102.604 53.088 103.308 53.808 104.172 54.352C105.068 54.864 106.156 55.12 107.436 55.12C108.556 55.12 109.58 54.8 110.508 54.16C111.468 53.488 112.3 52.752 113.004 51.952V43.888C113.004 42.608 112.796 41.44 112.38 40.384C111.996 39.328 111.372 38.48 110.508 37.84C109.644 37.2 108.508 36.88 107.1 36.88ZM133.913 33.568C135.833 33.568 137.449 33.968 138.761 34.768C140.073 35.536 141.049 36.624 141.689 38.032C142.361 39.408 142.697 41.024 142.697 42.88C142.697 43.328 142.665 43.792 142.601 44.272C142.569 44.72 142.521 45.2 142.457 45.712H127.289C127.289 48.752 127.961 51.104 129.305 52.768C130.649 54.432 132.441 55.264 134.681 55.264C135.609 55.264 136.569 55.12 137.561 54.832C138.585 54.544 139.641 54.112 140.729 53.536L142.217 55.936C141.097 56.832 139.833 57.504 138.425 57.952C137.017 58.4 135.593 58.624 134.153 58.624C132.265 58.624 130.617 58.288 129.209 57.616C127.833 56.912 126.681 55.984 125.753 54.832C124.857 53.648 124.185 52.32 123.737 50.848C123.289 49.376 123.065 47.872 123.065 46.336C123.065 44.736 123.289 43.184 123.737 41.68C124.185 40.176 124.857 38.816 125.753 37.6C126.681 36.352 127.817 35.376 129.161 34.672C130.505 33.936 132.089 33.568 133.913 33.568ZM133.529 36.592C132.441 36.592 131.481 36.896 130.649 37.504C129.817 38.112 129.145 38.896 128.633 39.856C128.121 40.784 127.769 41.744 127.577 42.736H138.521C138.553 41.392 138.361 40.272 137.945 39.376C137.561 38.448 136.985 37.76 136.217 37.312C135.481 36.832 134.585 36.592 133.529 36.592ZM149.472 34.144L154.656 48.928C154.88 49.536 155.088 50.128 155.28 50.704C155.472 51.28 155.664 51.968 155.856 52.768C156.048 52 156.224 51.344 156.384 50.8C156.576 50.224 156.768 49.664 156.96 49.12L162.192 34.144H165.936L157.392 58.288H153.744L145.248 34.144H149.472Z" fill="#F1727A"/>
<path d="M91.2032 23.104H94.4193L81.6033 58.432H78.2912L91.2032 23.104Z" fill="#BD8FE4"/>
<path d="M20.168 41.224L44.072 30.856V34.552L24.632 43.048L44.072 51.544V55.192L20.168 44.728V41.224Z" fill="#87D4F4"/>
<path d="M195.832 41.224L171.928 30.856V34.552L191.368 43.048L171.928 51.544V55.192L195.832 44.728V41.224Z" fill="#87D4F4"/>
</svg>
