<svg width="621" height="378" viewBox="0 0 621 378" fill="none" xmlns="http://www.w3.org/2000/svg">
<g clip-path="url(#clip0_6_122)">
<path d="M580.474 333.988H423.553C417.844 333.982 412.37 331.827 408.333 327.997C404.296 324.166 402.025 318.972 402.019 313.555V78.6716C402.025 73.2541 404.296 68.0602 408.333 64.2294C412.37 60.3987 417.844 58.2439 423.553 58.2378H580.474C586.184 58.2439 591.657 60.3987 595.694 64.2294C599.731 68.0602 602.002 73.2541 602.008 78.6716V313.555C602.002 318.972 599.731 324.166 595.694 327.997C591.657 331.827 586.184 333.982 580.474 333.988Z" fill="#E6E6E6"/>
<path d="M583.077 70.4309H423.257C421.47 70.433 419.756 71.1076 418.493 72.3067C417.229 73.5059 416.518 75.1317 416.516 76.8276V314.773C416.519 316.469 417.23 318.094 418.493 319.293C419.757 320.492 421.47 321.167 423.257 321.17H583.077C584.864 321.168 586.577 320.493 587.841 319.294C589.105 318.095 589.816 316.469 589.818 314.773V76.8276C589.816 75.1317 589.105 73.5059 587.841 72.3067C586.577 71.1076 584.864 70.433 583.077 70.4309Z" fill="white"/>
<path d="M427.388 58.2378C427.389 57.8233 427.563 57.426 427.871 57.133C428.18 56.8399 428.599 56.675 429.036 56.6746H440.238C440.675 56.6746 441.094 56.8393 441.403 57.1324C441.712 57.4256 441.885 57.8232 441.885 58.2378C441.885 58.6524 441.712 59.05 441.403 59.3431C441.094 59.6363 440.675 59.801 440.238 59.801H429.036C428.599 59.8005 428.18 59.6356 427.871 59.3426C427.563 59.0495 427.389 58.6522 427.388 58.2378Z" fill="#E6E6E6"/>
<path d="M445.839 58.2378C445.839 57.8233 446.013 57.426 446.322 57.133C446.631 56.8399 447.049 56.675 447.486 56.6746H458.688C459.125 56.6746 459.544 56.8393 459.853 57.1324C460.162 57.4256 460.335 57.8232 460.335 58.2378C460.335 58.6524 460.162 59.05 459.853 59.3431C459.544 59.6363 459.125 59.801 458.688 59.801H447.486C447.049 59.8005 446.631 59.6357 446.322 59.3426C446.013 59.0496 445.839 58.6522 445.839 58.2378Z" fill="#E6E6E6"/>
<path d="M556.541 58.2378C556.542 57.8233 556.715 57.426 557.024 57.133C557.333 56.8399 557.752 56.675 558.189 56.6746H569.39C569.827 56.6746 570.246 56.8393 570.555 57.1324C570.864 57.4256 571.038 57.8232 571.038 58.2378C571.038 58.6524 570.864 59.05 570.555 59.3431C570.246 59.6363 569.827 59.801 569.39 59.801H558.189C557.752 59.8005 557.333 59.6357 557.024 59.3426C556.715 59.0496 556.542 58.6522 556.541 58.2378Z" fill="#E6E6E6"/>
<path d="M525.314 316.267C525.314 317.912 525.281 319.55 525.202 321.17H423.257C421.47 321.167 419.757 320.492 418.493 319.293C417.23 318.094 416.519 316.469 416.516 314.773V195.006C446.874 199.66 474.495 214.419 494.431 236.638C514.366 258.858 525.314 287.086 525.314 316.267Z" fill="#F2F2F2"/>
<path d="M521.852 131.578H483.832C482.102 131.578 480.699 132.909 480.699 134.551V138.26C480.699 139.902 482.102 141.233 483.832 141.233H521.852C523.582 141.233 524.984 139.902 524.984 138.26V134.551C524.984 132.909 523.582 131.578 521.852 131.578Z" fill="#6C63FF"/>
<path d="M546.016 150.888H459.667C457.937 150.888 456.535 152.219 456.535 153.86V157.57C456.535 159.212 457.937 160.542 459.667 160.542H546.016C547.746 160.542 549.149 159.212 549.149 157.57V153.86C549.149 152.219 547.746 150.888 546.016 150.888Z" fill="#E6E6E6"/>
<path d="M546.016 170.197H459.667C457.937 170.197 456.535 171.528 456.535 173.17V176.879C456.535 178.521 457.937 179.852 459.667 179.852H546.016C547.746 179.852 549.149 178.521 549.149 176.879V173.17C549.149 171.528 547.746 170.197 546.016 170.197Z" fill="#E6E6E6"/>
<path d="M531.23 304.908C530.735 304.93 530.245 304.806 529.826 304.555C529.407 304.303 529.08 303.935 528.889 303.502C528.698 303.068 528.652 302.589 528.757 302.129C528.863 301.669 529.114 301.252 529.478 300.933L529.644 300.308C529.622 300.258 529.6 300.208 529.578 300.158C529.079 299.04 528.244 298.087 527.176 297.418C526.108 296.749 524.856 296.395 523.577 296.4C522.297 296.404 521.048 296.767 519.985 297.443C518.923 298.12 518.095 299.079 517.605 300.2C515.646 304.676 513.153 309.159 512.539 313.891C512.269 315.983 512.383 318.103 512.876 320.158C508.277 310.637 505.888 300.289 505.873 289.816C505.872 287.187 506.026 284.561 506.334 281.949C506.588 279.808 506.942 277.682 507.393 275.571C509.859 264.119 515.152 253.384 522.838 244.25C526.558 242.323 529.566 239.362 531.458 235.763C532.143 234.469 532.627 233.089 532.895 231.663C532.476 231.716 532.049 231.748 531.63 231.774C531.499 231.781 531.361 231.787 531.231 231.794L531.181 231.796C530.72 231.816 530.263 231.708 529.864 231.487C529.466 231.266 529.143 230.94 528.936 230.549C528.728 230.158 528.643 229.718 528.693 229.282C528.742 228.847 528.924 228.434 529.215 228.094C529.396 227.882 529.577 227.671 529.758 227.459C530.034 227.133 530.316 226.813 530.591 226.487C530.623 226.456 530.653 226.423 530.68 226.389C530.997 226.017 531.313 225.651 531.63 225.279C531.052 224.428 530.275 223.715 529.359 223.196C526.188 221.434 521.813 222.655 519.522 225.377C517.224 228.099 516.791 231.918 517.589 235.319C518.373 238.213 519.672 240.959 521.427 243.44C521.255 243.649 521.077 243.851 520.905 244.06C517.761 247.896 515.02 252.016 512.723 256.359C513.282 251.493 512.615 246.571 510.778 241.997C508.916 237.735 505.426 234.145 502.352 230.46C498.661 226.034 491.091 227.966 490.44 233.576C490.434 233.631 490.428 233.685 490.422 233.739C490.878 233.984 491.325 234.243 491.762 234.517C492.312 234.866 492.737 235.363 492.983 235.945C493.23 236.527 493.285 237.165 493.142 237.777C492.999 238.389 492.665 238.946 492.183 239.375C491.701 239.803 491.093 240.084 490.44 240.179L490.374 240.189C490.536 241.75 490.824 243.298 491.233 244.817C492.421 249.061 494.519 253.025 497.397 256.462C500.275 259.9 503.87 262.736 507.957 264.793C508.226 264.924 508.487 265.054 508.756 265.178C506.448 271.385 505 277.85 504.449 284.41C504.137 288.281 504.155 292.169 504.504 296.037L504.483 295.9C503.603 291.599 501.185 287.718 497.638 284.913C492.37 280.807 484.928 279.295 479.245 275.994C478.641 275.626 477.939 275.43 477.222 275.428C476.504 275.426 475.801 275.62 475.195 275.985C474.589 276.35 474.106 276.872 473.802 277.489C473.499 278.106 473.388 278.793 473.482 279.468C473.489 279.516 473.497 279.564 473.505 279.612C474.352 279.939 475.177 280.317 475.975 280.741C476.431 280.986 476.878 281.245 477.315 281.52C477.865 281.868 478.29 282.365 478.536 282.947C478.783 283.529 478.838 284.167 478.695 284.779C478.552 285.391 478.218 285.948 477.736 286.377C477.254 286.805 476.646 287.086 475.993 287.181L475.927 287.191C475.878 287.198 475.837 287.204 475.789 287.211C477.237 290.49 479.268 293.509 481.795 296.135C484.916 299.313 488.689 301.853 492.881 303.598C497.073 305.344 501.597 306.258 506.176 306.286H506.183C507.425 311.41 509.226 316.398 511.555 321.17H530.749C530.818 320.967 530.88 320.759 530.942 320.556C529.165 320.662 527.382 320.561 525.631 320.256C527.055 318.598 528.479 316.927 529.903 315.268C529.935 315.237 529.964 315.205 529.992 315.17C530.715 314.322 531.444 313.48 532.166 312.631L532.167 312.63C532.205 310.029 531.891 307.433 531.231 304.908L531.23 304.908ZM509.251 263.879L509.261 263.866L509.251 263.892V263.879ZM504.999 300.247L504.834 299.895C504.841 299.64 504.841 299.386 504.834 299.125C504.834 299.053 504.82 298.981 504.82 298.909C504.882 299.359 504.937 299.81 505.006 300.26L504.999 300.247Z" fill="#CCCCCC"/>
<path d="M575.088 91.4382H431.245C430.934 91.4317 430.638 91.3099 430.42 91.0987C430.203 90.8876 430.081 90.604 430.081 90.3086C430.081 90.0132 430.203 89.7296 430.42 89.5185C430.638 89.3073 430.934 89.1855 431.245 89.179H575.088C575.399 89.1855 575.695 89.3073 575.913 89.5185C576.131 89.7296 576.253 90.0132 576.253 90.3086C576.253 90.604 576.131 90.8876 575.913 91.0987C575.695 91.3099 575.399 91.4317 575.088 91.4382Z" fill="#CACACA"/>
<path d="M438.92 85.9123C440.852 85.9123 442.419 84.3927 442.419 82.5182C442.419 80.6436 440.852 79.124 438.92 79.124C436.988 79.124 435.421 80.6436 435.421 82.5182C435.421 84.3927 436.988 85.9123 438.92 85.9123Z" fill="#3F3D56"/>
<path d="M451.007 85.9123C452.939 85.9123 454.506 84.3927 454.506 82.5182C454.506 80.6436 452.939 79.124 451.007 79.124C449.074 79.124 447.508 80.6436 447.508 82.5182C447.508 84.3927 449.074 85.9123 451.007 85.9123Z" fill="#3F3D56"/>
<path d="M463.094 85.9123C465.026 85.9123 466.593 84.3927 466.593 82.5182C466.593 80.6436 465.026 79.124 463.094 79.124C461.162 79.124 459.595 80.6436 459.595 82.5182C459.595 84.3927 461.162 85.9123 463.094 85.9123Z" fill="#3F3D56"/>
<path d="M569.466 80.4353H561.636C561.48 80.4382 561.333 80.4988 561.224 80.604C561.115 80.7092 561.054 80.8506 561.054 80.9979C561.054 81.1452 561.115 81.2866 561.224 81.3918C561.333 81.497 561.48 81.5576 561.636 81.5605H569.466C569.621 81.5576 569.769 81.497 569.877 81.3918C569.986 81.2866 570.047 81.1452 570.047 80.9979C570.047 80.8506 569.986 80.7092 569.877 80.604C569.769 80.4988 569.621 80.4382 569.466 80.4353Z" fill="#3F3D56"/>
<path d="M569.466 82.5471H561.636C561.48 82.55 561.333 82.6106 561.224 82.7158C561.115 82.8209 561.054 82.9624 561.054 83.1097C561.054 83.257 561.115 83.3985 561.224 83.5036C561.333 83.6088 561.48 83.6694 561.636 83.6723H569.466C569.621 83.6694 569.769 83.6088 569.877 83.5036C569.986 83.3985 570.047 83.257 570.047 83.1097C570.047 82.9624 569.986 82.8209 569.877 82.7158C569.769 82.6106 569.621 82.55 569.466 82.5471Z" fill="#3F3D56"/>
<path d="M569.466 84.6562H561.636C561.48 84.6592 561.333 84.7197 561.224 84.8249C561.115 84.9301 561.054 85.0715 561.054 85.2188C561.054 85.3661 561.115 85.5076 561.224 85.6128C561.333 85.718 561.48 85.7785 561.636 85.7814H569.466C569.621 85.7785 569.769 85.718 569.877 85.6128C569.986 85.5076 570.047 85.3661 570.047 85.2188C570.047 85.0715 569.986 84.9301 569.877 84.8249C569.769 84.7197 569.621 84.6592 569.466 84.6562Z" fill="#3F3D56"/>
<path d="M336.082 195.095H252.686C251.506 195.097 250.375 195.543 249.542 196.336C248.709 197.129 248.241 198.203 248.243 199.322V324.334H340.536V199.322C340.537 198.767 340.421 198.217 340.198 197.704C339.974 197.191 339.646 196.725 339.232 196.333C338.819 195.94 338.327 195.629 337.787 195.417C337.246 195.204 336.667 195.095 336.082 195.095ZM294.664 266.126C292.056 266.114 289.559 265.126 287.714 263.376C285.87 261.626 284.829 259.256 284.817 256.781V242.362C284.819 239.885 285.857 237.51 287.704 235.76C289.55 234.009 292.054 233.025 294.664 233.025C297.275 233.025 299.778 234.009 301.625 235.76C303.471 237.51 304.51 239.885 304.512 242.362V256.781C304.5 259.256 303.458 261.626 301.614 263.376C299.77 265.126 297.272 266.114 294.664 266.126Z" fill="#E6E6E6"/>
<path d="M247.956 320.336V332.397C247.958 333.022 248.22 333.621 248.686 334.063C249.151 334.505 249.783 334.754 250.441 334.755H338.338C338.996 334.752 339.626 334.502 340.091 334.061C340.556 333.619 340.819 333.022 340.822 332.397V320.336L247.956 320.336Z" fill="#CCCCCC"/>
<path d="M474.179 0H117.692C114.629 0.00462365 111.693 1.1612 109.528 3.21628C107.362 5.27137 106.143 8.05733 106.138 10.9637V239.234C106.141 242.141 107.359 244.928 109.526 246.984C111.692 249.039 114.629 250.195 117.692 250.198H474.179C477.242 250.195 480.179 249.039 482.345 246.984C484.511 244.928 485.729 242.141 485.732 239.234V10.9637C485.728 8.05733 484.509 5.27137 482.343 3.21628C480.177 1.1612 477.241 0.00462184 474.179 0Z" fill="#E6E6E6"/>
<path d="M471.203 7.91895H120.67C119.031 7.92233 117.459 8.54283 116.301 9.64433C115.142 10.7458 114.492 12.2384 114.492 13.7945V236.407C114.494 237.962 115.146 239.451 116.304 240.55C117.463 241.649 119.033 242.268 120.67 242.271H471.203C472.841 242.268 474.411 241.649 475.569 240.55C476.727 239.451 477.379 237.962 477.382 236.407V13.7945C477.382 12.2384 476.731 10.7458 475.573 9.64433C474.414 8.54283 472.843 7.92233 471.203 7.91895Z" fill="white"/>
<path d="M477.382 13.7945V236.407C477.379 237.962 476.727 239.451 475.569 240.55C474.411 241.649 472.841 242.268 471.203 242.271H347.597C333.924 230.237 322.705 215.914 314.506 200.02C313.966 198.996 313.452 197.96 312.964 196.912C305.493 181.528 300.969 165.005 299.604 148.116C299.514 147.079 299.437 146.043 299.386 144.995C299.219 142.313 299.142 139.595 299.142 136.864C299.117 118.704 302.731 100.705 309.791 83.8257C310.215 82.7774 310.665 81.7412 311.127 80.7051C325.336 49.0269 351.01 23.2117 383.515 7.91895H471.203C472.843 7.92233 474.414 8.54283 475.573 9.64433C476.731 10.7458 477.382 12.2384 477.382 13.7945Z" fill="url(#paint0_linear_6_122)"/>
<path d="M453.582 38.5899H125.59C125.249 38.583 124.925 38.4496 124.686 38.2182C124.447 37.9868 124.314 37.676 124.314 37.3522C124.314 37.0284 124.447 36.7175 124.686 36.4862C124.925 36.2548 125.249 36.1214 125.59 36.1145H453.582C453.923 36.1214 454.248 36.2548 454.487 36.4862C454.725 36.7175 454.859 37.0284 454.859 37.3522C454.859 37.676 454.725 37.9868 454.487 38.2182C454.248 38.4496 453.923 38.583 453.582 38.5899Z" fill="#CACACA"/>
<path d="M147.917 29.795C152.139 29.795 155.561 26.4751 155.561 22.3798C155.561 18.2845 152.139 14.9646 147.917 14.9646C143.696 14.9646 140.273 18.2845 140.273 22.3798C140.273 26.4751 143.696 29.795 147.917 29.795Z" fill="#3F3D56"/>
<path d="M174.324 29.795C178.545 29.795 181.968 26.4751 181.968 22.3798C181.968 18.2845 178.545 14.9646 174.324 14.9646C170.102 14.9646 166.68 18.2845 166.68 22.3798C166.68 26.4751 170.102 29.795 174.324 29.795Z" fill="#3F3D56"/>
<path d="M200.73 29.795C204.952 29.795 208.374 26.4751 208.374 22.3798C208.374 18.2845 204.952 14.9646 200.73 14.9646C196.509 14.9646 193.086 18.2845 193.086 22.3798C193.086 26.4751 196.509 29.795 200.73 29.795Z" fill="#3F3D56"/>
<path d="M437.683 16.8027H418.925C418.554 16.8097 418.199 16.9548 417.939 17.2068C417.679 17.4588 417.533 17.7976 417.533 18.1505C417.533 18.5034 417.679 18.8422 417.939 19.0942C418.199 19.3462 418.554 19.4913 418.925 19.4982H437.683C438.055 19.4913 438.409 19.3462 438.67 19.0942C438.93 18.8422 439.076 18.5034 439.076 18.1505C439.076 17.7976 438.93 17.4588 438.67 17.2068C438.409 16.9548 438.055 16.8097 437.683 16.8027Z" fill="#3F3D56"/>
<path d="M437.683 21.8618H418.925C418.554 21.8688 418.199 22.0139 417.939 22.2659C417.679 22.5179 417.533 22.8567 417.533 23.2096C417.533 23.5625 417.679 23.9013 417.939 24.1533C418.199 24.4053 418.554 24.5503 418.925 24.5573H437.683C438.055 24.5503 438.409 24.4053 438.67 24.1533C438.93 23.9013 439.076 23.5625 439.076 23.2096C439.076 22.8567 438.93 22.5179 438.67 22.2659C438.409 22.0139 438.055 21.8688 437.683 21.8618Z" fill="#3F3D56"/>
<path d="M437.683 26.9141H418.925C418.554 26.921 418.199 27.0661 417.939 27.3181C417.679 27.5701 417.533 27.9089 417.533 28.2618C417.533 28.6147 417.679 28.9535 417.939 29.2055C418.199 29.4575 418.554 29.6026 418.925 29.6096H437.683C438.055 29.6026 438.409 29.4575 438.67 29.2055C438.93 28.9535 439.076 28.6147 439.076 28.2618C439.076 27.9089 438.93 27.5701 438.67 27.3181C438.409 27.0661 438.055 26.921 437.683 26.9141Z" fill="#3F3D56"/>
<path d="M226.017 110.898H180.151C178.421 110.898 177.018 112.229 177.018 113.871V118.504C177.018 120.146 178.421 121.477 180.151 121.477H226.017C227.748 121.477 229.15 120.146 229.15 118.504V113.871C229.15 112.229 227.748 110.898 226.017 110.898Z" fill="#6C63FF"/>
<path d="M252.494 132.055H153.675C151.945 132.055 150.542 133.386 150.542 135.028V139.661C150.542 141.302 151.945 142.633 153.675 142.633H252.494C254.224 142.633 255.626 141.302 255.626 139.661V135.028C255.626 133.386 254.224 132.055 252.494 132.055Z" fill="#E6E6E6"/>
<path d="M252.494 153.212H153.675C151.945 153.212 150.542 154.543 150.542 156.184V160.817C150.542 162.459 151.945 163.79 153.675 163.79H252.494C254.224 163.79 255.626 162.459 255.626 160.817V156.184C255.626 154.543 254.224 153.212 252.494 153.212Z" fill="#E6E6E6"/>
<path d="M159.119 229.508C159.127 233.865 158.309 238.188 156.704 242.271H120.67C119.033 242.268 117.463 241.649 116.304 240.55C115.146 239.451 114.494 237.962 114.492 236.407V193.401C116.505 193.092 118.541 192.937 120.581 192.938C125.642 192.938 130.653 193.883 135.329 195.721C140.005 197.559 144.253 200.252 147.832 203.648C151.411 207.044 154.249 211.076 156.186 215.513C158.123 219.95 159.119 224.705 159.119 229.508Z" fill="#6C63FF"/>
<path opacity="0.2" d="M477.703 83.8258V80.7051H422.58V44.5376H419.304V80.7051H356.127V44.5376H352.851V80.7051H311.127C310.665 81.7413 310.215 82.7775 309.791 83.8258H352.851V144.995H299.386C299.437 146.043 299.514 147.079 299.604 148.116H352.851V196.912H312.964C313.452 197.96 313.966 198.996 314.506 200.02H352.851V241.039H356.127V200.02H419.304V241.039H422.58V200.02H477.703V196.912H422.58V196.912C422.58 190.504 423.91 184.159 426.495 178.238C429.079 172.318 432.867 166.939 437.642 162.408C442.417 157.876 448.086 154.282 454.325 151.83C460.563 149.378 467.25 148.116 474.003 148.116H477.703V144.995H422.58V83.8258H477.703ZM419.304 196.912H356.127V148.116H419.304V196.912ZM419.304 144.995H356.127V143.776C356.127 127.876 362.783 112.628 374.631 101.385C386.479 90.1419 402.549 83.8258 419.304 83.8258H419.304V144.995Z" fill="black"/>
<path d="M433.321 219.175C432.618 219.206 431.922 219.031 431.327 218.674C430.732 218.316 430.268 217.794 429.996 217.178C429.725 216.562 429.659 215.881 429.809 215.229C429.959 214.576 430.316 213.983 430.833 213.529C430.919 213.203 430.982 212.968 431.068 212.642C431.037 212.571 431.006 212.5 430.975 212.429C427.814 205.278 417.103 205.327 413.97 212.489C411.189 218.845 407.648 225.213 406.776 231.933C406.392 234.904 406.554 237.915 407.254 240.834C400.722 227.312 397.33 212.616 397.308 197.741C397.307 194.008 397.525 190.278 397.963 186.569C398.324 183.528 398.826 180.508 399.467 177.511C402.969 161.245 410.486 146 421.402 133.027C426.685 130.292 430.958 126.085 433.644 120.975C434.617 119.137 435.305 117.176 435.686 115.152C435.09 115.226 434.484 115.273 433.888 115.31C433.703 115.319 433.507 115.328 433.322 115.338L433.252 115.341C432.597 115.368 431.947 115.216 431.381 114.902C430.815 114.588 430.357 114.125 430.062 113.569C429.767 113.014 429.647 112.389 429.718 111.77C429.788 111.152 430.045 110.566 430.458 110.082C430.716 109.782 430.973 109.482 431.231 109.181C431.622 108.718 432.022 108.264 432.413 107.8C432.458 107.756 432.5 107.71 432.54 107.661C432.989 107.132 433.439 106.613 433.888 106.085C433.068 104.876 431.964 103.864 430.664 103.127C426.16 100.624 419.946 102.358 416.692 106.224C413.429 110.09 412.814 115.514 413.947 120.344C414.914 124.479 417.025 128.271 419.399 131.877C419.155 132.174 418.9 132.462 418.656 132.758C414.191 138.207 410.3 144.057 407.037 150.226C407.83 143.315 406.884 136.324 404.274 129.829C401.63 123.775 396.673 118.676 392.308 113.443C387.065 107.157 376.314 109.9 375.39 117.869C375.381 117.946 375.372 118.023 375.364 118.1C376.012 118.447 376.647 118.816 377.268 119.206C378.048 119.7 378.652 120.407 379.002 121.233C379.352 122.059 379.43 122.966 379.227 123.835C379.024 124.704 378.549 125.495 377.865 126.104C377.18 126.713 376.318 127.111 375.39 127.246L375.295 127.26C375.526 129.478 375.935 131.675 376.517 133.834C378.203 139.86 381.184 145.49 385.271 150.372C389.358 155.254 394.464 159.282 400.268 162.204C400.65 162.389 401.021 162.575 401.402 162.751C398.124 171.565 396.068 180.747 395.286 190.064C394.843 195.561 394.869 201.083 395.364 206.576L395.334 206.382C394.084 200.273 390.65 194.762 385.613 190.778C378.132 184.946 367.562 182.799 359.491 178.111C355.606 175.855 350.628 178.771 351.306 183.045C351.316 183.113 351.327 183.181 351.339 183.25C352.542 183.715 353.713 184.25 354.846 184.854C355.494 185.201 356.129 185.569 356.75 185.959C357.53 186.453 358.135 187.16 358.484 187.986C358.834 188.812 358.912 189.719 358.709 190.589C358.506 191.458 358.032 192.248 357.347 192.857C356.662 193.466 355.8 193.864 354.873 194L354.778 194.014C354.709 194.023 354.651 194.032 354.582 194.041C356.638 198.699 359.523 202.986 363.112 206.715C367.545 211.229 372.903 214.836 378.857 217.315C384.811 219.794 391.236 221.093 397.738 221.132H397.748C399.513 228.41 402.07 235.494 405.378 242.271H432.638C432.735 241.983 432.823 241.687 432.911 241.399C430.388 241.55 427.855 241.406 425.368 240.973C427.391 238.618 429.413 236.244 431.436 233.889C431.481 233.845 431.523 233.799 431.563 233.75C432.589 232.545 433.624 231.349 434.65 230.144L434.651 230.142C434.706 226.448 434.259 222.762 433.322 219.176L433.321 219.175ZM402.105 160.906L402.12 160.888L402.105 160.924V160.906ZM396.067 212.556L395.833 212.056C395.843 211.694 395.843 211.332 395.833 210.962C395.833 210.86 395.813 210.758 395.813 210.656C395.901 211.295 395.979 211.935 396.077 212.575L396.067 212.556Z" fill="#2F2E41"/>
<path d="M190.587 158.678V123.914C190.587 118.577 188.353 113.46 184.376 109.686C180.4 105.913 175.006 103.793 169.383 103.793H91.7647C86.1411 103.793 80.7479 105.913 76.7714 109.686C72.7949 113.46 70.5609 118.577 70.5609 123.914V314.634C70.5609 319.971 72.7949 325.088 76.7714 328.862C80.7479 332.635 86.1411 334.755 91.7647 334.755H169.383C172.167 334.755 174.925 334.234 177.497 333.223C180.07 332.212 182.407 330.73 184.376 328.862C186.345 326.993 187.907 324.775 188.972 322.334C190.038 319.893 190.587 317.277 190.587 314.634V183.424C190.941 183.424 191.281 183.29 191.532 183.052C191.783 182.814 191.924 182.492 191.924 182.155V159.947C191.924 159.611 191.783 159.288 191.532 159.05C191.281 158.812 190.941 158.678 190.587 158.678Z" fill="#E6E6E6"/>
<path d="M186.074 124.052V314.497C186.074 318.453 184.43 322.249 181.498 325.061C178.566 327.873 174.583 329.473 170.414 329.514C170.357 329.52 170.299 329.522 170.241 329.521H92.245C88.0459 329.521 84.0189 327.938 81.0498 325.12C78.0806 322.303 76.4123 318.481 76.4119 314.497V124.052C76.4123 120.067 78.0806 116.246 81.0498 113.428C84.019 110.611 88.0459 109.028 92.245 109.027H101.71C101.245 110.112 101.068 111.288 101.194 112.452C101.32 113.617 101.746 114.734 102.434 115.706C103.122 116.678 104.052 117.474 105.14 118.025C106.229 118.576 107.444 118.865 108.677 118.865H153.144C154.377 118.862 155.59 118.572 156.677 118.02C157.764 117.469 158.692 116.672 159.379 115.701C160.066 114.73 160.491 113.614 160.618 112.45C160.744 111.286 160.568 110.111 160.104 109.027H170.241C174.44 109.028 178.467 110.611 181.436 113.428C184.405 116.246 186.074 120.067 186.074 124.052Z" fill="white"/>
<path d="M170.609 323.643C170.609 325.616 170.544 327.573 170.414 329.514C170.357 329.52 170.299 329.522 170.241 329.521H92.245C88.0459 329.521 84.0189 327.938 81.0498 325.12C78.0806 322.303 76.4123 318.481 76.4119 314.497V229.626C101.824 230.842 125.772 241.278 143.305 258.777C160.837 276.275 170.612 299.498 170.609 323.643Z" fill="#F2F2F2"/>
<path d="M70.9898 178.127C70.5113 178.126 70.0525 177.946 69.7142 177.624C69.3758 177.303 69.1855 176.868 69.1849 176.414V164.767C69.1849 164.313 69.3751 163.877 69.7136 163.556C70.0521 163.235 70.5111 163.054 70.9898 163.054C71.4686 163.054 71.9276 163.235 72.2661 163.556C72.6046 163.877 72.7948 164.313 72.7948 164.767V176.414C72.7942 176.868 72.6039 177.303 72.2655 177.624C71.9272 177.946 71.4684 178.126 70.9898 178.127Z" fill="#E6E6E6"/>
<path d="M140.82 168.827H121.666C119.936 168.827 118.534 170.158 118.534 171.8V176.433C118.534 178.075 119.936 179.406 121.666 179.406H140.82C142.55 179.406 143.952 178.075 143.952 176.433V171.8C143.952 170.158 142.55 168.827 140.82 168.827Z" fill="#6C63FF"/>
<path d="M167.296 189.984H95.1902C93.46 189.984 92.0575 191.315 92.0575 192.957V197.59C92.0575 199.231 93.46 200.562 95.1902 200.562H167.296C169.026 200.562 170.428 199.231 170.428 197.59V192.957C170.428 191.315 169.026 189.984 167.296 189.984Z" fill="#E6E6E6"/>
<path d="M167.296 211.141H95.1902C93.46 211.141 92.0575 212.472 92.0575 214.114V218.747C92.0575 220.388 93.46 221.719 95.1902 221.719H167.296C169.026 221.719 170.428 220.388 170.428 218.747V214.114C170.428 212.472 169.026 211.141 167.296 211.141Z" fill="#E6E6E6"/>
<path d="M149.946 318.683C149.616 318.698 149.29 318.615 149.01 318.448C148.731 318.28 148.513 318.035 148.386 317.746C148.259 317.457 148.228 317.137 148.298 316.831C148.368 316.525 148.536 316.247 148.779 316.034L148.889 315.617C148.874 315.584 148.86 315.551 148.845 315.517C148.513 314.772 147.956 314.137 147.244 313.692C146.533 313.246 145.698 313.01 144.845 313.013C143.993 313.016 143.16 313.258 142.452 313.708C141.744 314.159 141.192 314.798 140.865 315.546C139.56 318.528 137.899 321.516 137.489 324.67C137.309 326.064 137.385 327.477 137.714 328.847C134.649 322.501 133.057 315.605 133.047 308.625C133.046 306.873 133.149 305.123 133.354 303.382C133.523 301.955 133.759 300.538 134.06 299.131C135.703 291.499 139.23 284.345 144.353 278.257C146.832 276.973 148.837 274.999 150.098 272.601C150.555 271.739 150.877 270.819 151.056 269.869C150.776 269.903 150.492 269.925 150.212 269.943C150.125 269.947 150.034 269.951 149.947 269.956L149.914 269.957C149.606 269.97 149.302 269.899 149.036 269.751C148.77 269.604 148.555 269.387 148.417 269.126C148.278 268.865 148.222 268.572 148.255 268.282C148.288 267.991 148.409 267.716 148.603 267.49C148.724 267.349 148.844 267.208 148.965 267.067C149.149 266.849 149.337 266.636 149.52 266.419C149.541 266.398 149.561 266.376 149.58 266.353C149.791 266.105 150.002 265.862 150.212 265.614C149.827 265.047 149.31 264.572 148.699 264.226C146.586 263.051 143.67 263.865 142.143 265.679C140.612 267.493 140.323 270.038 140.855 272.305C141.378 274.234 142.243 276.064 143.413 277.717C143.298 277.856 143.179 277.991 143.065 278.131C140.969 280.687 139.143 283.433 137.612 286.327C137.984 283.084 137.54 279.804 136.316 276.756C135.075 273.915 132.749 271.522 130.7 269.067C130.159 268.407 129.423 267.914 128.586 267.651C127.749 267.388 126.849 267.367 126 267.589C125.15 267.811 124.389 268.268 123.812 268.9C123.236 269.533 122.87 270.314 122.761 271.144C122.757 271.18 122.753 271.216 122.749 271.252C123.053 271.415 123.351 271.588 123.642 271.771C124.008 272.003 124.292 272.334 124.456 272.722C124.62 273.11 124.657 273.535 124.562 273.943C124.467 274.351 124.244 274.722 123.922 275.008C123.601 275.294 123.196 275.48 122.761 275.544L122.717 275.551C122.825 276.591 123.017 277.622 123.29 278.635C124.081 281.463 125.48 284.105 127.398 286.396C129.316 288.687 131.712 290.577 134.436 291.948C134.615 292.035 134.789 292.122 134.968 292.205C133.43 296.341 132.465 300.65 132.098 305.022C131.89 307.602 131.902 310.193 132.134 312.771L132.12 312.68C131.534 309.813 129.922 307.227 127.558 305.357C124.048 302.621 119.088 301.613 115.3 299.413C114.898 299.168 114.43 299.037 113.951 299.036C113.473 299.035 113.004 299.164 112.601 299.407C112.197 299.65 111.875 299.998 111.673 300.41C111.47 300.821 111.396 301.279 111.459 301.729L111.475 301.825C112.039 302.043 112.589 302.294 113.121 302.577C113.425 302.74 113.723 302.913 114.014 303.096C114.38 303.328 114.664 303.66 114.828 304.047C114.992 304.435 115.029 304.861 114.934 305.268C114.838 305.676 114.615 306.047 114.294 306.333C113.973 306.619 113.568 306.806 113.133 306.869L113.089 306.876C113.056 306.88 113.029 306.884 112.997 306.889C113.961 309.075 115.315 311.086 116.999 312.836C119.08 314.954 121.594 316.647 124.388 317.81C127.182 318.974 130.197 319.583 133.248 319.602H133.253C134.081 323.017 135.281 326.341 136.834 329.521H149.626C149.671 329.386 149.713 329.247 149.754 329.112C148.57 329.183 147.381 329.116 146.214 328.912C147.163 327.807 148.113 326.693 149.062 325.588C149.083 325.567 149.103 325.546 149.121 325.523C149.603 324.957 150.089 324.396 150.57 323.83L150.57 323.83C150.596 322.096 150.386 320.366 149.947 318.684L149.946 318.683ZM135.298 291.339L135.304 291.331L135.298 291.348V291.339ZM132.464 315.577L132.354 315.342C132.359 315.173 132.359 315.003 132.354 314.829C132.354 314.781 132.345 314.733 132.345 314.685C132.386 314.985 132.423 315.286 132.469 315.586L132.464 315.577Z" fill="#CCCCCC"/>
<path d="M70.6289 155.518C70.1503 155.518 69.6916 155.337 69.3532 155.016C69.0148 154.695 68.8245 154.26 68.8239 153.806V142.159C68.8239 141.705 69.0141 141.269 69.3526 140.948C69.6911 140.626 70.1501 140.446 70.6289 140.446C71.1076 140.446 71.5666 140.626 71.9051 140.948C72.2436 141.269 72.4338 141.705 72.4338 142.159V153.806C72.4332 154.26 72.2429 154.695 71.9045 155.016C71.5662 155.337 71.1074 155.518 70.6289 155.518Z" fill="#E6E6E6"/>
<path d="M118.641 110.986C118.641 110.532 118.832 110.097 119.17 109.776C119.508 109.455 119.967 109.274 120.446 109.274H132.719C133.198 109.274 133.657 109.454 133.996 109.775C134.334 110.097 134.524 110.532 134.524 110.986C134.524 111.441 134.334 111.876 133.996 112.198C133.657 112.519 133.198 112.699 132.719 112.699H120.446C119.967 112.699 119.508 112.518 119.17 112.197C118.832 111.876 118.641 111.441 118.641 110.986Z" fill="white"/>
<path d="M70.9898 197.995C70.5113 197.994 70.0525 197.813 69.7142 197.492C69.3758 197.171 69.1855 196.736 69.1849 196.282V184.635C69.1849 184.181 69.3751 183.745 69.7136 183.424C70.0521 183.103 70.5111 182.922 70.9898 182.922C71.4686 182.922 71.9276 183.103 72.2661 183.424C72.6046 183.745 72.7948 184.181 72.7948 184.635V196.282C72.7942 196.736 72.6039 197.171 72.2655 197.492C71.9272 197.813 71.4684 197.994 70.9898 197.995Z" fill="#E6E6E6"/>
<path d="M139.578 112.699C140.575 112.699 141.383 111.932 141.383 110.986C141.383 110.041 140.575 109.274 139.578 109.274C138.581 109.274 137.773 110.041 137.773 110.986C137.773 111.932 138.581 112.699 139.578 112.699Z" fill="white"/>
<path d="M620.14 334.75L0.859639 334.961C0.632076 334.96 0.414064 334.874 0.253386 334.721C0.092707 334.568 0.00247192 334.361 0.00247192 334.145C0.00247192 333.929 0.092707 333.722 0.253386 333.569C0.414064 333.416 0.632076 333.33 0.859639 333.329L620.14 333.119C620.368 333.119 620.587 333.205 620.748 333.358C620.909 333.511 621 333.718 621 333.935C621 334.151 620.909 334.358 620.748 334.511C620.587 334.664 620.368 334.75 620.14 334.75Z" fill="#CACACA"/>
<path d="M264.804 154.906L261.547 155.569C261.525 154.276 261.355 152.989 261.04 151.731C260.744 153.271 260.12 154.739 259.206 156.043L240.524 159.829L222.588 141.867C222.56 132.886 227.816 126.061 237.239 126.061C237.807 126.061 238.396 126.087 238.991 126.139C244.082 125.33 249.305 126.428 253.561 129.2C257.817 131.973 260.773 136.204 261.807 141.003C268.486 147.244 266.063 150.913 264.804 154.906Z" fill="#2F2E41"/>
<path d="M273.989 364.962H280.765L283.99 340.158L273.987 340.159L273.989 364.962Z" fill="#FFB6B6"/>
<path d="M272.308 361.79L283.021 361.183V365.539L293.206 372.213C293.709 372.543 294.087 373.016 294.287 373.565C294.486 374.113 294.496 374.708 294.314 375.262C294.132 375.815 293.768 376.299 293.276 376.643C292.783 376.987 292.188 377.172 291.576 377.172H278.823L276.625 372.864L275.766 377.172H270.958L272.308 361.79Z" fill="#2F2E41"/>
<path d="M194.597 357.963L200.491 361.136L216.194 341.073L207.495 336.389L194.597 357.963Z" fill="#FFB6B6"/>
<path d="M194.785 354.417L204.417 358.906L202.152 362.694L207.539 373.268C207.806 373.79 207.889 374.38 207.777 374.95C207.665 375.52 207.364 376.042 206.918 376.438C206.472 376.835 205.904 377.086 205.296 377.154C204.689 377.222 204.075 377.105 203.543 376.819L192.451 370.846L192.779 366.07L189.792 369.415L185.61 367.163L194.785 354.417Z" fill="#2F2E41"/>
<path d="M299.038 159.252C298.17 159.371 297.339 159.669 296.606 160.126C295.872 160.583 295.253 161.186 294.791 161.895C294.33 162.603 294.038 163.398 293.936 164.225C293.834 165.052 293.924 165.89 294.201 166.681L283.831 175.198L287.748 182.44L302.214 170.217C303.583 169.689 304.699 168.703 305.353 167.445C306.006 166.188 306.15 164.747 305.759 163.396C305.367 162.044 304.467 160.876 303.228 160.112C301.989 159.348 300.499 159.042 299.038 159.252H299.038Z" fill="#FFB6B6"/>
<path d="M288.595 188.54C285.136 193.511 277.384 198.313 265.878 202.569C265.243 202.81 264.563 202.924 263.879 202.903C263.196 202.882 262.525 202.726 261.908 202.446C257.566 200.571 254.783 193.6 254.522 192.924L246.112 182.159C245.963 182.002 242.031 177.767 242.481 173.604C242.582 172.731 242.881 171.89 243.357 171.137C243.834 170.385 244.476 169.739 245.241 169.245C251.606 164.767 265.874 180.32 267.725 182.388L277.036 177.004L283.821 174.132L289.298 167.808L297.01 175.289L290.074 185.76C289.704 186.741 289.207 187.675 288.595 188.54Z" fill="#2F2E41"/>
<path d="M264.41 207.614C264.41 207.614 284.336 237.731 280.726 241.157C277.116 244.582 271.498 245.482 271.498 245.482L259.066 230.195L264.41 207.614Z" fill="#2F2E41"/>
<path d="M246.793 166.48L256.184 172.509C260.549 175.31 263.832 179.387 265.535 184.119C267.238 188.851 267.268 193.982 265.621 198.732L262.978 206.357L246.793 166.48Z" fill="#2F2E41"/>
<path d="M230.187 248.693L228.931 252.842L224.647 302.883L203.243 340.735L213.459 347.659L242.646 311.653L254.191 275.902L272.32 355.045L285.941 354.121L276.481 244.392L258.53 213.505L230.187 248.693Z" fill="#2F2E41"/>
<path d="M245.196 167.996L258.266 178.132C261.135 180.357 263.2 183.375 264.175 186.767C264.618 188.307 264.828 189.899 264.8 191.495L264.41 213.505L276.394 243.897C276.394 243.897 243.905 255.544 239.573 245.267C235.241 234.991 245.196 167.996 245.196 167.996Z" fill="#6C63FF"/>
<path d="M249.105 250.602C232.875 250.602 228.919 250.718 228.663 250.668L228.406 250.619V241.356L232.353 224.714C231.892 219.547 230.811 212.735 230.909 206.901C231.263 185.817 230.171 165.221 230.171 165.221L238.761 157.697L242.663 160.107L249.902 166.976C258.316 186.626 264.993 205.125 265.035 206.314L265.564 226.769L263.398 234.991C253.6 241.554 262.553 250.602 249.105 250.602Z" fill="#2F2E41"/>
<path opacity="0.2" d="M233.811 183.589L231.838 195.276L245.195 200.504L233.811 183.589Z" fill="black"/>
<path d="M247.267 155.505C254.49 155.505 260.345 149.949 260.345 143.095C260.345 136.242 254.49 130.686 247.267 130.686C240.045 130.686 234.19 136.242 234.19 143.095C234.19 149.949 240.045 155.505 247.267 155.505Z" fill="#FFB6B6"/>
<path opacity="0.2" d="M225.354 206.061C228.835 209.885 233.556 212.504 238.776 213.505C243.995 214.506 249.417 213.833 254.19 211.592L257.036 210.255L225.354 206.061Z" fill="black"/>
<path d="M270.862 203.204C270.278 202.582 269.558 202.089 268.753 201.76C267.947 201.431 267.075 201.273 266.198 201.298C265.321 201.323 264.46 201.531 263.677 201.905C262.893 202.28 262.206 202.814 261.663 203.468L248.459 199.95L244.249 207.043L262.97 211.762C264.188 212.555 265.671 212.895 267.136 212.72C268.602 212.544 269.949 211.864 270.921 210.81C271.894 209.755 272.425 208.398 272.414 206.996C272.403 205.594 271.851 204.245 270.862 203.204H270.862Z" fill="#FFB6B6"/>
<path d="M239.352 211.076C233.074 211.076 224.58 207.583 214.496 200.818C213.934 200.449 213.459 199.973 213.101 199.42C212.743 198.867 212.51 198.25 212.417 197.607C211.673 193.136 216.269 187.091 216.72 186.511L221.552 173.92C221.607 173.715 223.164 168.268 227.074 166.329C227.897 165.929 228.801 165.702 229.726 165.665C230.65 165.627 231.571 165.78 232.427 166.113C239.874 168.686 234.059 188.554 233.261 191.159L243.126 195.566L249.391 199.355L257.971 200.207L255.641 210.436L242.612 210.714C241.545 210.962 240.45 211.083 239.352 211.076Z" fill="#2F2E41"/>
<path d="M262.949 134.931C261.902 136.224 258.296 137.367 254.012 138.289C254.019 138.204 254.019 138.12 254.019 138.036C253.998 136.743 253.828 135.456 253.513 134.198C253.216 135.738 252.592 137.205 251.678 138.51C251.61 138.607 251.542 138.704 251.466 138.802C247.791 139.49 243.904 140.023 240.859 140.38C242.953 147.536 250.98 153.406 250.111 157.757L226.591 162.316C226.736 160.508 226.583 158.689 226.139 156.926C225.689 159.253 224.5 161.395 222.731 163.063L220.733 163.452L220.138 160.666C214.978 148.906 222.17 136.867 233.954 130.639C236.055 127.65 239.318 125.572 243.029 124.86L245.964 124.288C247.816 123.929 249.724 123.919 251.58 124.259C253.436 124.599 255.203 125.283 256.78 126.272C258.357 127.26 259.714 128.533 260.772 130.019C261.831 131.505 262.571 133.174 262.949 134.931Z" fill="#2F2E41"/>
<path d="M319.136 359.91L319.484 352.489C323.109 350.65 327.153 349.679 331.265 349.659C325.606 354.049 326.314 362.511 322.477 368.414C321.266 370.246 319.636 371.796 317.707 372.95C315.779 374.103 313.601 374.83 311.337 375.076L306.602 377.827C305.952 374.39 306.095 370.86 307.022 367.48C307.948 364.101 309.635 360.952 311.968 358.251C313.292 356.748 314.81 355.409 316.487 354.266C317.621 357.104 319.136 359.91 319.136 359.91Z" fill="#F2F2F2"/>
<path d="M330.615 378H165.727C165.5 377.999 165.282 377.913 165.121 377.76C164.96 377.607 164.87 377.4 164.87 377.184C164.87 376.968 164.96 376.761 165.121 376.608C165.282 376.455 165.5 376.369 165.727 376.369H330.615C330.728 376.368 330.84 376.389 330.945 376.43C331.049 376.471 331.145 376.531 331.225 376.607C331.305 376.682 331.368 376.773 331.412 376.872C331.455 376.971 331.477 377.077 331.477 377.184C331.477 377.292 331.455 377.398 331.412 377.497C331.368 377.596 331.305 377.686 331.225 377.762C331.145 377.838 331.049 377.898 330.945 377.939C330.84 377.98 330.728 378 330.615 378Z" fill="#CACACA"/>
</g>
<defs>
<linearGradient id="paint0_linear_6_122" x1="490" y1="125" x2="270" y2="125" gradientUnits="userSpaceOnUse">
<stop stop-color="#4FE2F6"/>
<stop offset="1" stop-color="#F05FF3"/>
</linearGradient>
<clipPath id="clip0_6_122">
<rect width="621" height="378" fill="white"/>
</clipPath>
</defs>
</svg>
