<svg width="627" height="379" viewBox="0 0 627 379" fill="none" xmlns="http://www.w3.org/2000/svg">
<g clip-path="url(#clip0_27_37)">
<path d="M145.876 331.372L127.462 325.405C125.434 316.092 125.889 306.46 128.786 297.347C135.771 312.945 157.559 317.306 169.656 329.931C173.397 333.896 176.127 338.59 177.646 343.667C179.164 348.743 179.432 354.071 178.428 359.257L181.954 371.664C172.844 370.695 164.07 367.906 156.234 363.489C148.399 359.071 141.689 353.131 136.568 346.077C133.736 342.094 131.457 337.795 129.784 333.283C137.733 332.76 145.876 331.372 145.876 331.372Z" fill="#F2F2F2"/>
<path d="M359.686 220.475H263.266C261.902 220.477 260.594 220.981 259.631 221.877C258.668 222.773 258.127 223.987 258.129 225.252V366.526H364.837V225.252C364.837 224.624 364.704 224.003 364.445 223.423C364.187 222.844 363.807 222.317 363.329 221.873C362.851 221.43 362.283 221.078 361.658 220.838C361.033 220.598 360.363 220.475 359.686 220.475ZM311.8 300.746C308.785 300.733 305.897 299.616 303.765 297.638C301.633 295.661 300.429 292.982 300.415 290.185V273.891C300.415 271.09 301.614 268.404 303.75 266.423C305.885 264.443 308.781 263.33 311.8 263.33C314.82 263.33 317.716 264.443 319.851 266.423C321.987 268.404 323.186 271.09 323.186 273.891V290.185C323.172 292.982 321.968 295.661 319.836 297.638C317.704 299.616 314.816 300.733 311.8 300.746Z" fill="#E6E6E6"/>
<path d="M257.798 362.008V375.638C257.799 376.344 258.103 377.021 258.641 377.52C259.179 378.02 259.909 378.301 260.671 378.302H362.295C363.055 378.299 363.784 378.017 364.322 377.518C364.86 377.019 365.164 376.343 365.168 375.638V362.008H257.798Z" fill="#CCCCCC"/>
<path d="M519.351 0H107.189C103.648 0.00522512 100.253 1.31226 97.7495 3.63468C95.2456 5.9571 93.8363 9.10549 93.8307 12.3899V270.356C93.8341 273.641 95.2426 276.791 97.747 279.113C100.251 281.436 103.647 282.743 107.189 282.746H519.351C522.893 282.743 526.288 281.436 528.793 279.113C531.297 276.791 532.706 273.641 532.709 270.356V12.3899C532.704 9.10549 531.294 5.9571 528.79 3.63468C526.286 1.31226 522.892 0.00522512 519.351 0Z" fill="#E6E6E6"/>
<path d="M515.909 8.94556H110.634C108.737 8.94973 106.92 9.65144 105.58 10.8968C104.241 12.1421 103.489 13.8293 103.489 15.5884V267.158C103.491 268.915 104.244 270.6 105.584 271.842C106.923 273.085 108.74 273.784 110.634 273.786H515.909C517.803 273.784 519.62 273.085 520.959 271.842C522.299 270.6 523.052 268.915 523.054 267.158V15.5884C523.054 13.8293 522.302 12.1421 520.962 10.8967C519.623 9.65142 517.806 8.94973 515.909 8.94556Z" fill="white"/>
<path d="M525.491 14.6371V233.604C494.308 242.035 461.012 240.812 430.645 230.122C400.278 219.432 374.493 199.856 357.194 174.358C339.894 148.86 332.023 118.828 334.771 88.8102C337.52 58.792 350.738 30.4216 372.425 7.9942H518.346C520.242 7.99838 522.06 8.70008 523.399 9.9454C524.739 11.1907 525.491 12.878 525.491 14.6371Z" fill="url(#paint0_linear_27_37)"/>
<path d="M495.538 43.61H116.321C115.927 43.6022 115.551 43.4515 115.275 43.19C114.999 42.9285 114.845 42.5772 114.845 42.2113C114.845 41.8454 114.999 41.4941 115.275 41.2326C115.551 40.9712 115.927 40.8204 116.321 40.8126H495.538C495.932 40.8204 496.308 40.9712 496.584 41.2326C496.86 41.4941 497.014 41.8454 497.014 42.2113C497.014 42.5772 496.86 42.9285 496.584 43.19C496.308 43.4515 495.932 43.6022 495.538 43.61Z" fill="#CACACA"/>
<path d="M142.135 33.6711C147.016 33.6711 150.973 29.9193 150.973 25.2912C150.973 20.6632 147.016 16.9114 142.135 16.9114C137.254 16.9114 133.297 20.6632 133.297 25.2912C133.297 29.9193 137.254 33.6711 142.135 33.6711Z" fill="#3F3D56"/>
<path d="M172.665 33.6711C177.546 33.6711 181.503 29.9193 181.503 25.2912C181.503 20.6632 177.546 16.9114 172.665 16.9114C167.784 16.9114 163.828 20.6632 163.828 25.2912C163.828 29.9193 167.784 33.6711 172.665 33.6711Z" fill="#3F3D56"/>
<path d="M203.196 33.6711C208.077 33.6711 212.034 29.9193 212.034 25.2912C212.034 20.6632 208.077 16.9114 203.196 16.9114C198.315 16.9114 194.358 20.6632 194.358 25.2912C194.358 29.9193 198.315 33.6711 203.196 33.6711Z" fill="#3F3D56"/>
<path d="M477.156 18.9885H455.468C455.039 18.9964 454.629 19.1604 454.328 19.4451C454.027 19.7299 453.859 20.1128 453.859 20.5116C453.859 20.9103 454.027 21.2932 454.328 21.578C454.629 21.8627 455.039 22.0267 455.468 22.0346H477.156C477.586 22.0267 477.995 21.8627 478.296 21.578C478.597 21.2932 478.766 20.9103 478.766 20.5116C478.766 20.1128 478.597 19.7299 478.296 19.4451C477.995 19.1604 477.586 18.9964 477.156 18.9885Z" fill="#3F3D56"/>
<path d="M477.156 24.7056H455.468C455.039 24.7136 454.629 24.8775 454.328 25.1623C454.027 25.4471 453.859 25.8299 453.859 26.2287C453.859 26.6275 454.027 27.0104 454.328 27.2951C454.629 27.5799 455.039 27.7438 455.468 27.7518H477.156C477.586 27.7438 477.995 27.5799 478.296 27.2951C478.597 27.0104 478.766 26.6275 478.766 26.2287C478.766 25.8299 478.597 25.4471 478.296 25.1623C477.995 24.8775 477.586 24.7136 477.156 24.7056Z" fill="#3F3D56"/>
<path d="M477.156 30.4153H455.468C455.039 30.4232 454.629 30.5872 454.328 30.8719C454.027 31.1567 453.859 31.5396 453.859 31.9384C453.859 32.3371 454.027 32.72 454.328 33.0048C454.629 33.2896 455.039 33.4535 455.468 33.4615H477.156C477.586 33.4535 477.995 33.2896 478.296 33.0048C478.597 32.72 478.766 32.3371 478.766 31.9384C478.766 31.5396 478.597 31.1567 478.296 30.8719C477.995 30.5872 477.586 30.4232 477.156 30.4153Z" fill="#3F3D56"/>
<path d="M211.99 196.873C212.549 196.309 212.967 195.639 213.216 194.91C213.465 194.181 213.538 193.409 213.431 192.651C213.323 191.892 213.038 191.164 212.595 190.519C212.151 189.874 211.561 189.326 210.865 188.916L215.49 170.818L205.702 174.135L202.811 190.812C202.145 191.942 201.948 193.26 202.259 194.515C202.57 195.771 203.367 196.877 204.498 197.624C205.63 198.371 207.017 198.707 208.398 198.569C209.779 198.43 211.057 197.827 211.99 196.873H211.99Z" fill="#9E616A"/>
<path d="M235.527 121.035L231.599 130.403C231.599 130.403 233.283 139.772 230.477 141.854C227.671 143.936 228.793 143.936 228.793 145.497C228.697 146.617 228.347 147.705 227.767 148.692C227.187 149.678 226.389 150.54 225.427 151.222C223.182 152.783 213.081 184.532 213.081 184.532H202.981C203.307 182.113 203.307 179.665 202.981 177.245C202.419 173.602 204.664 164.234 205.786 162.672C206.909 161.111 205.786 159.029 205.786 155.906C205.786 152.783 208.031 151.222 208.031 146.017C208.031 140.813 214.765 100.216 214.204 95.532C213.642 90.8478 219.815 86.6841 219.815 86.6841H225.426L235.527 121.035Z" fill="#E6E6E6"/>
<path d="M271.969 365.08H279.744L283.445 337.262H271.969V365.08Z" fill="#9E616A"/>
<path d="M269.431 360.14L281.854 359.452V364.389L293.664 371.954C294.247 372.328 294.687 372.865 294.918 373.486C295.149 374.108 295.16 374.782 294.949 375.409C294.738 376.037 294.316 376.586 293.745 376.976C293.174 377.365 292.484 377.575 291.775 377.575H276.985L274.436 372.692L273.441 377.575H267.865L269.431 360.14Z" fill="#2F2E41"/>
<path d="M174.513 358.953L181.738 361.62L196.268 337.044L185.606 333.107L174.513 358.953Z" fill="#9E616A"/>
<path d="M174.126 353.493L185.942 357.115L183.973 361.702L191.929 372.782C192.322 373.329 192.517 373.979 192.484 374.636C192.45 375.292 192.192 375.922 191.746 376.433C191.299 376.944 190.689 377.309 190.003 377.475C189.317 377.641 188.591 377.6 187.933 377.357L174.192 372.283L173.771 366.872L170.899 371.067L165.718 369.155L174.126 353.493Z" fill="#2F2E41"/>
<path d="M256.295 282.305L243.329 226.183L223.082 288.539L191.022 347.669L190.852 347.983L180.697 342.912C179.263 318.902 182.667 296.404 195.117 276.73L201.013 222.731C201.193 220.886 205.591 177.569 219.516 169.887L223.594 161.263L264.154 151.971L264.301 152.126C268.201 156.192 270.778 161.2 271.731 166.57L283.851 234.669L283.858 234.707L280.608 282.213L285.053 352.301H268.969C259.019 334.936 254.794 311.604 256.295 282.305Z" fill="#2F2E41"/>
<path d="M294.647 95.3998L319.235 87.4212C319.998 87.1766 320.833 87.2223 321.56 87.5481C322.286 87.8739 322.843 88.4534 323.109 89.1596C323.376 89.8658 323.329 90.6411 322.981 91.3157C322.632 91.9903 322.009 92.5092 321.249 92.7587L296.66 100.737C295.898 100.982 295.062 100.936 294.336 100.61C293.61 100.285 293.053 99.7051 292.786 98.9989C292.52 98.2928 292.566 97.5174 292.915 96.8428C293.264 96.1682 293.887 95.6493 294.647 95.3998Z" fill="#2F2E41"/>
<path d="M321.067 92.0325C321.548 93.5769 323.623 94.327 325.299 93.9153C326.956 93.3886 328.335 92.2949 329.153 90.8574C330.053 89.4838 330.671 87.9622 331.597 86.6032C333.375 84.0212 336.155 82.1723 339.363 81.4394C336.505 81.0902 333.601 81.6002 331.079 82.8946C330.192 83.4596 329.212 83.888 328.177 84.1632C327.073 84.2175 325.967 84.2042 324.865 84.1231C323.892 84.1691 322.953 84.4722 322.16 84.9966C321.366 85.521 320.751 86.2449 320.386 87.083C320.021 87.9211 319.922 88.8384 320.101 89.7269C320.28 90.6154 320.728 91.4379 321.394 92.0977" fill="#6C63FF"/>
<path d="M317.851 94.4889C317.748 95.248 317.466 95.9768 317.026 96.6241C316.586 97.2713 315.999 97.8212 315.305 98.235C314.611 98.6488 313.828 98.9165 313.01 99.0191C312.193 99.1218 311.361 99.057 310.573 98.8292L298.659 113.789L295.07 104.715L306.935 91.9002C307.435 90.6985 308.393 89.7087 309.628 89.1184C310.862 88.528 312.287 88.3782 313.633 88.6973C314.978 89.0164 316.151 89.7822 316.928 90.8497C317.706 91.9171 318.034 93.212 317.851 94.4889Z" fill="#9E616A"/>
<path d="M211.639 179.534C210.546 179.534 209.926 179.335 209.686 178.909C209.333 178.284 209.945 177.467 210.653 176.521C211.147 175.862 212.59 174.551 211.881 174.47C201.121 173.252 206.286 111.724 210.949 103.591C211.896 101.939 210.894 99.4033 211.961 96.599C214.875 88.9405 218.853 86.5867 226.778 81.8982C227.421 81.5175 228.091 81.12 228.788 80.7055C229.689 80.1685 229.638 78.3881 229.585 76.5027C229.527 74.4073 229.465 72.2403 230.572 70.8859L230.644 70.7976L230.76 70.7725C233.437 70.1985 242.441 69.1329 247.773 70.7802L247.847 70.8035L247.902 70.8542C249.169 72.0291 249.284 74.3047 249.396 76.5051C249.487 78.3118 249.573 80.0176 250.29 80.7586C255.769 86.4226 261.982 86.3122 262.045 86.311L262.353 86.3027L262.383 86.5867C266.224 93.3675 263.217 118.55 265.887 134.193C268.599 150.086 291.764 163.614 271.929 166.016C271.971 166.077 271.995 166.148 271.998 166.221C272 166.293 271.981 166.365 271.942 166.429C270.744 168.506 215.756 179.534 211.639 179.534Z" fill="#E6E6E6"/>
<path d="M274.428 133.251L263.717 127.662C245.039 115.655 240.438 106.119 239.863 100.231C239.249 93.9493 242.858 90.5132 243.012 90.3706L243.095 90.314L252.751 85.7383C253.977 85.1571 255.323 84.8244 256.698 84.7622C258.074 84.6999 259.448 84.9096 260.73 85.3773C262.011 85.845 263.171 86.5601 264.132 87.475C265.093 88.39 265.834 89.484 266.304 90.6845L275.235 113.466L285.137 106.692L289.36 105.149L292.767 100.923L302.126 95.8603L309.078 101.664L300.335 117.882L295.477 119.029L294.447 121.491L294.356 121.545L274.428 133.251Z" fill="#E6E6E6"/>
<path d="M255.257 60.362C253.269 63.7337 250.102 66.3769 246.278 67.8563C242.454 69.3358 238.201 69.5632 234.219 68.5011C230.237 67.4391 226.764 65.1509 224.371 62.0134C221.979 58.876 220.809 55.0763 221.056 51.2402C221.303 47.4041 222.951 43.7602 225.728 40.9088C228.506 38.0574 232.248 36.1683 236.338 35.5528C240.427 34.9373 244.621 35.632 248.229 37.5226C251.836 39.4131 254.641 42.3867 256.183 45.9537C256.267 46.1472 256.342 46.3408 256.417 46.5421C257.289 48.7907 257.636 51.1852 257.436 53.5675C257.236 55.9498 256.493 58.2657 255.257 60.362Z" fill="#9E616A"/>
<path d="M257.878 46.542C257.093 44.5058 257.435 45.5665 256.642 43.5381C256.897 44.5374 256.819 45.5851 256.417 46.542H234.705V34.8357C241.066 32.4976 247.285 30.5078 251.041 34.8357C254.389 34.8359 257.599 36.0692 259.966 38.2646C262.333 40.4599 263.662 43.4374 263.663 46.542H257.878Z" fill="#2F2E41"/>
<path d="M250.181 79.0828C250.165 78.8661 250.14 78.6415 250.106 78.4247C249.815 76.8344 249.342 75.2772 248.696 73.7794C248.07 72.1458 247.435 70.5044 246.801 68.8708C247.618 71.8361 247.369 74.9678 246.091 77.7899C242.427 75.142 244.739 69.0876 239.948 69.0876C228.428 69.0876 216.575 60.424 216.575 49.7319C216.575 39.0475 221.516 31.0575 233.036 31.0575C244.564 31.0575 253.913 35.9506 254.138 46.635C239.948 49.7319 252.861 77.9989 250.181 79.0828Z" fill="#2F2E41"/>
<path d="M218.014 48.0942C225.39 48.0942 231.37 42.5481 231.37 35.7066C231.37 28.8651 225.39 23.319 218.014 23.319C210.638 23.319 204.658 28.8651 204.658 35.7066C204.658 42.5481 210.638 48.0942 218.014 48.0942Z" fill="#2F2E41"/>
<path d="M222.493 36.1879C220.206 38.6577 216.625 39.6177 213.394 40.9029C207.693 43.2228 202.688 46.7975 198.813 51.3171C194.938 55.8368 192.31 61.1649 191.157 66.8395C190.263 71.4617 190.38 76.2464 188.97 80.7524C187.567 85.2584 184.095 89.6792 179.111 90.4612C175.739 90.9954 172.358 89.7876 169.186 88.5953C167.442 87.945 165.697 87.292 163.952 86.6365C165.772 82.4015 167.589 78.1665 169.403 73.9315C166.488 77.9282 163.097 81.6082 159.295 84.9023C153.042 82.5641 146.785 80.2259 140.521 77.8877C155.931 77.9419 153.301 64.0678 156.749 50.1472C158.643 42.4978 174.779 37.3182 177.943 30.0405C179.652 26.0931 182.545 22.6826 186.279 20.2125C190.013 17.7425 194.432 16.3164 199.013 16.103C203.593 15.8896 208.144 16.8978 212.126 19.0083C216.108 21.1189 219.355 24.2434 221.483 28.012C224.646 29.1811 224.738 33.7491 222.493 36.1879Z" fill="#2F2E41"/>
<path d="M626.006 378.762L0.993904 379C0.730303 379 0.477501 378.903 0.291107 378.73C0.104713 378.557 0 378.323 0 378.078C0 377.834 0.104713 377.599 0.291107 377.426C0.477501 377.253 0.730303 377.156 0.993904 377.156L626.006 376.918C626.27 376.918 626.522 377.015 626.709 377.188C626.895 377.361 627 377.596 627 377.84C627 378.085 626.895 378.319 626.709 378.492C626.522 378.665 626.27 378.762 626.006 378.762Z" fill="#CACACA"/>
</g>
<defs>
<linearGradient id="paint0_linear_27_37" x1="556" y1="124" x2="334" y2="124" gradientUnits="userSpaceOnUse">
<stop stop-color="#4FE2F6"/>
<stop offset="1" stop-color="#F05FF3"/>
</linearGradient>
<clipPath id="clip0_27_37">
<rect width="627" height="379" fill="white"/>
</clipPath>
</defs>
</svg>
