<svg width="622" height="368" viewBox="0 0 622 368" fill="none" xmlns="http://www.w3.org/2000/svg">
<path d="M456.352 0.212646H0.19458V240.838H456.352V0.212646Z" fill="#E6E6E6"/>
<path d="M443.308 30.3931H13.2384V226.602H443.308V30.3931Z" fill="white"/>
<path d="M456.157 0H0V15.9616H456.157V0Z" fill="url(#paint0_linear_6_191)"/>
<path d="M14.4017 11.1194C16.3855 11.1194 17.9937 9.7948 17.9937 8.16079C17.9937 6.52678 16.3855 5.20215 14.4017 5.20215C12.4178 5.20215 10.8096 6.52678 10.8096 8.16079C10.8096 9.7948 12.4178 11.1194 14.4017 11.1194Z" fill="white"/>
<path d="M28.0348 11.1194C30.0187 11.1194 31.6269 9.7948 31.6269 8.16079C31.6269 6.52678 30.0187 5.20215 28.0348 5.20215C26.051 5.20215 24.4427 6.52678 24.4427 8.16079C24.4427 9.7948 26.051 11.1194 28.0348 11.1194Z" fill="white"/>
<path d="M41.668 11.1194C43.6519 11.1194 45.2601 9.7948 45.2601 8.16079C45.2601 6.52678 43.6519 5.20215 41.668 5.20215C39.6842 5.20215 38.0759 6.52678 38.0759 8.16079C38.0759 9.7948 39.6842 11.1194 41.668 11.1194Z" fill="white"/>
<path d="M150.268 46.5317H66.1533V121.696H150.268V46.5317Z" fill="#E6E6E6"/>
<path d="M270.33 46.5317H186.215V121.696H270.33V46.5317Z" fill="#E6E6E6"/>
<path d="M390.391 46.5317H306.276V121.696H390.391V46.5317Z" fill="#E6E6E6"/>
<path d="M150.268 135.302H66.1533V210.466H150.268V135.302Z" fill="#E6E6E6"/>
<path d="M270.33 135.302H186.215V210.466H270.33V135.302Z" fill="#E6E6E6"/>
<path d="M390.391 135.302H306.276V210.466H390.391V135.302Z" fill="#E6E6E6"/>
<path d="M206.545 154.619L221.914 149.615L223.701 174.637C223.701 174.637 226.918 182.291 225.846 185.235C225.846 185.235 226.561 190.24 224.773 190.534C222.986 190.829 217.981 191.418 217.627 191.123C217.274 190.828 217.27 189.945 217.27 189.945C217.27 189.945 213.696 192.006 213.338 194.361C213.338 194.361 198.327 198.188 197.97 194.655C197.612 191.122 205.475 188.178 205.475 188.178L211.551 180.524L206.545 154.619Z" fill="white"/>
<path d="M239.072 154.619L254.438 149.615L256.226 174.637C256.226 174.637 259.442 182.291 258.37 185.235C258.37 185.235 259.085 190.24 257.297 190.534C255.51 190.829 250.505 191.418 250.151 191.123C249.798 190.828 249.794 189.945 249.794 189.945C249.794 189.945 246.22 192.006 245.862 194.361C245.862 194.361 230.851 198.188 230.494 194.655C230.136 191.122 237.999 188.178 237.999 188.178L244.075 180.524L239.072 154.619Z" fill="white"/>
<path d="M240.573 57.9897C240.573 57.9897 237.301 65.5212 241.092 68.9175L237.931 77.8646C237.931 77.8646 249.162 105.616 245.954 109.493C245.954 109.493 233.974 114.427 210.011 107.731L219.745 76.6309L218.355 63.5038L220.28 57.3365L224.558 56.9868C224.558 56.9868 221.991 64.9158 226.698 66.1495C231.404 67.3831 235.995 57.185 235.995 57.185L240.573 57.9897Z" fill="#3F3D56"/>
<path d="M89.4456 106.607L93.5753 107.999L113.285 86.6625L119.48 111.709L123.61 111.091C126.259 89.497 128.421 67.4719 125.768 57.0546L110.47 56.5132L103.525 74.7598L100.145 87.1287L89.4456 106.607Z" fill="white"/>
<path d="M340.09 56.8838C340.09 56.8838 334.454 63.3372 334.729 65.9415C335.004 68.5459 338.578 111.004 338.578 111.004L346.964 111.344L344.487 80.7738L346.549 72.5086L351.635 111.004L361.945 111.231L352.736 61.2999L350.948 56.8844L340.09 56.8838Z" fill="white"/>
<path d="M371.944 160.851C370.448 159.372 367.875 158.572 365.405 158.14C365.476 157.955 357.893 156.664 357.764 156.93L354.905 155.054L346.12 158.811L341.183 156.043L338.89 156.713C338.983 156.38 331.772 157.409 331.772 157.409C330.394 157.45 328.635 157.521 326.665 157.645C319.767 158.083 319.236 172.797 319.236 172.797C322.409 171.728 325.793 171.144 329.221 171.075L331.085 188.674C340.674 187.997 350.731 188.785 361.155 190.714L366.043 176.879L377.427 173.233C377.427 173.233 375.482 164.347 371.944 160.851Z" fill="#3F3D56"/>
<path d="M127.666 152.47C126.433 151.251 124.314 150.592 122.278 150.236C122.339 150.084 116.088 149.021 115.981 149.24L113.625 147.694L106.388 150.79L102.32 148.51L100.431 149.062C100.508 148.788 94.5659 149.635 94.5659 149.635C93.4339 149.669 91.9807 149.727 90.3583 149.83C84.6748 150.19 84.2375 162.313 84.2375 162.313C86.8526 161.432 89.6408 160.951 92.4653 160.894L94.0013 196.392C101.902 195.834 110.189 196.484 118.775 198.073L122.802 165.678L132.182 162.673C132.182 162.673 130.58 155.352 127.666 152.47Z" fill="white"/>
<path d="M530.252 161.919H570.581V144.145C570.581 139.74 568.457 135.515 564.675 132.401C560.893 129.286 555.765 127.536 550.417 127.536C545.069 127.536 539.94 129.286 536.158 132.401C532.377 135.515 530.252 139.74 530.252 144.145V161.919Z" fill="#2F2E41"/>
<path d="M512.249 359.673H503.576L499.449 332.113H512.251L512.249 359.673Z" fill="#FFB6B6"/>
<path d="M514.462 357.34H497.379C494.492 357.34 491.723 358.285 489.682 359.966C487.64 361.647 486.493 363.928 486.493 366.306V366.597H514.462V357.34Z" fill="#2F2E41"/>
<path d="M615.939 350.138L608.386 353.651L588.343 331.325L599.492 326.141L615.939 350.138Z" fill="#FFB6B6"/>
<path d="M616.474 347.211L601.598 354.126C599.084 355.295 597.237 357.239 596.463 359.53C595.688 361.821 596.051 364.272 597.47 366.342L597.644 366.596L622 355.271L616.474 347.211Z" fill="#2F2E41"/>
<path d="M560.502 235.738L561.171 238.494C561.171 238.494 563.179 240.148 562.175 240.975C561.171 241.802 561.506 245.662 561.506 245.662C562.068 252.699 573.232 292.245 575.229 299.968C575.229 299.968 590.624 308.238 602.673 324.502C614.721 340.766 615.054 344.901 615.054 344.901L601.669 349.588L568.204 316.232C568.204 316.232 558.832 311.546 555.485 307.411C552.138 303.277 531.384 260.547 531.384 260.547L519.668 305.206C519.668 305.206 520.337 321.47 517.325 331.945C515.473 338.556 514.353 345.292 513.978 352.069L498.248 350.691C498.248 350.691 499.252 311.546 500.925 307.411C500.925 307.411 493.897 259.721 507.954 240.699L519.283 215.823L530.378 212.306L560.502 235.738Z" fill="#2F2E41"/>
<path d="M550.625 131.881C529.507 132.179 529.511 158.051 550.625 158.345C571.741 158.048 571.738 132.176 550.625 131.881Z" fill="#FFB8B8"/>
<path d="M534.372 144.427H537.961L538.938 142.414L538.45 144.427H558.08L557.443 140.215L562.214 144.427H566.974V142.145C566.975 140.382 566.555 138.636 565.738 137.006C564.92 135.377 563.72 133.896 562.208 132.649C560.695 131.401 558.899 130.411 556.922 129.735C554.945 129.059 552.826 128.711 550.686 128.71C548.545 128.708 546.425 129.055 544.447 129.728C542.469 130.402 540.671 131.389 539.156 132.635C537.642 133.881 536.44 135.36 535.619 136.989C534.799 138.617 534.376 140.363 534.374 142.126V142.145L534.372 144.427Z" fill="#2F2E41"/>
<path d="M528.848 166.071L568.753 166.338L560.322 236.802C560.322 236.802 513.654 234.774 513.625 223.041L517.997 212.615L528.848 166.071Z" fill="#3F3D56"/>
<path d="M570.468 243.614C569.854 242.996 569.413 242.274 569.175 241.499C568.937 240.725 568.908 239.917 569.09 239.132C569.273 238.348 569.661 237.605 570.229 236.958C570.797 236.31 571.531 235.773 572.378 235.385L570.644 222.98L579.54 220.273L581.69 237.82C582.384 239.035 582.514 240.418 582.054 241.707C581.595 242.995 580.578 244.101 579.197 244.814C577.815 245.527 576.164 245.799 574.556 245.578C572.948 245.357 571.493 244.659 570.468 243.614Z" fill="#FFB6B6"/>
<path d="M563.506 172.408L568.756 166.363C568.756 166.363 572.35 165.707 576.595 169.786C580.84 173.865 583.316 224.856 583.316 224.856L567.751 227.77L558.553 191.639L563.506 172.408Z" fill="#3F3D56"/>
<path d="M475.55 227.705L476.708 273.006L512.314 288.504L577.157 278.967L578.749 231.877L537.643 219.955L475.55 227.705Z" fill="white"/>
<path d="M512.221 288.994L476.146 273.292L474.971 227.303L537.698 219.475L537.832 219.513L579.329 231.549L577.712 279.361L512.221 288.994ZM477.269 272.721L512.406 288.015L576.601 278.573L578.169 232.205L537.588 220.436L476.129 228.106L477.269 272.721Z" fill="#CACACA"/>
<path d="M511.519 239.987L511.38 239.942L475.34 228.139L475.76 227.269L511.661 239.026L578.671 231.413L578.827 232.341L511.519 239.987Z" fill="#CACACA"/>
<path d="M512.159 239.501L511.021 239.512L511.745 288.51L512.882 288.498L512.159 239.501Z" fill="#CACACA"/>
<path d="M506.965 237.642L493.973 233.304L556.515 225.096L569.506 229.434L506.965 237.642Z" fill="#CACACA"/>
<path d="M475.775 240.846L475.325 241.706L490.393 247.05L490.842 246.189L475.775 240.846Z" fill="#CACACA"/>
<path d="M482.598 256.301L482.148 257.161L497.216 262.504L497.665 261.644L482.598 256.301Z" fill="#6C63FF"/>
<path d="M277.444 290.642L278.602 335.944L314.208 351.442L379.051 341.905L380.643 294.815L339.537 282.893L277.444 290.642Z" fill="white"/>
<path d="M314.115 351.931L278.04 336.229L276.865 290.241L339.592 282.412L339.726 282.451L381.223 294.486L379.606 342.298L314.115 351.931ZM279.163 335.658L314.3 350.952L378.495 341.51L380.063 295.143L339.482 283.373L278.023 291.043L279.163 335.658Z" fill="#CACACA"/>
<path d="M313.413 302.925L313.274 302.879L277.234 291.077L277.653 290.207L313.555 301.963L380.565 294.351L380.721 295.278L313.413 302.925Z" fill="#CACACA"/>
<path d="M314.052 302.438L312.915 302.45L313.639 351.447L314.776 351.436L314.052 302.438Z" fill="#CACACA"/>
<path d="M305.712 299.513L295.867 296.242L358.409 288.034L368.252 291.305L305.712 299.513Z" fill="#CACACA"/>
<path d="M277.668 303.783L277.219 304.644L292.286 309.987L292.736 309.127L277.668 303.783Z" fill="#CACACA"/>
<path d="M284.492 319.238L284.042 320.098L299.11 325.442L299.559 324.582L284.492 319.238Z" fill="#6C63FF"/>
<path d="M339.301 296.853L340.646 349.441L381.978 367.432L457.251 356.361L459.099 301.697L411.381 287.858L339.301 296.853Z" fill="url(#paint1_linear_6_191)"/>
<path d="M381.87 368L339.993 349.773L338.629 296.387L411.445 287.3L411.601 287.345L459.772 301.316L457.895 356.818L381.87 368ZM341.297 349.11L382.085 366.864L456.606 355.903L458.425 302.078L411.317 288.416L339.973 297.319L341.297 349.11Z" fill="#3F3D56"/>
<path d="M381.056 311.112L380.894 311.059L339.057 297.358L339.545 296.348L381.22 309.995L459.008 301.158L459.189 302.235L381.056 311.112Z" fill="#3F3D56"/>
<path d="M381.798 310.547L380.478 310.56L381.318 367.439L382.638 367.425L381.798 310.547Z" fill="#3F3D56"/>
<path d="M372.785 307.177L360.688 303.354L433.288 293.826L445.386 297.648L372.785 307.177Z" fill="#3F3D56"/>
<path d="M339.562 312.108L339.04 313.107L356.531 319.31L357.053 318.311L339.562 312.108Z" fill="#3F3D56"/>
<path d="M347.483 330.049L346.961 331.047L364.452 337.25L364.974 336.252L347.483 330.049Z" fill="white"/>
<path d="M495.738 235.195C496.616 234.856 497.392 234.362 498.014 233.749C498.635 233.135 499.085 232.417 499.333 231.645C499.581 230.873 499.62 230.065 499.448 229.279C499.275 228.493 498.896 227.747 498.337 227.095L506.418 216.53L499.821 210.919L488.663 225.971C487.395 226.818 486.549 228.019 486.284 229.346C486.019 230.673 486.355 232.034 487.227 233.171C488.099 234.308 489.447 235.142 491.015 235.515C492.584 235.888 494.264 235.775 495.738 235.196V235.195Z" fill="#FFB6B6"/>
<path d="M534.98 168.849L529.191 165.707C529.191 165.707 524.723 166.532 519.971 174.06C515.219 181.588 496.057 215.244 496.057 215.244L503.934 221.829L524.947 195.425L534.98 168.849Z" fill="#3F3D56"/>
<defs>
<linearGradient id="paint0_linear_6_191" x1="456" y1="7.99997" x2="-8.49999" y2="8.00013" gradientUnits="userSpaceOnUse">
<stop stop-color="#4FE2F6"/>
<stop offset="1" stop-color="#F05FF3"/>
</linearGradient>
<linearGradient id="paint1_linear_6_191" x1="459" y1="328" x2="339" y2="328" gradientUnits="userSpaceOnUse">
<stop stop-color="#4FE2F6"/>
<stop offset="1" stop-color="#F05FF3"/>
</linearGradient>
</defs>
</svg>
