<svg width="1920" height="387" viewBox="0 0 1920 387" fill="none" xmlns="http://www.w3.org/2000/svg">
<g clip-path="url(#clip0_28_150)">
<path d="M-228 196.244L-160.972 183.33C-93.9444 170.898 40.1111 144.346 174.167 164.019C308.222 182.968 442.278 248.142 576.333 273.488C710.389 298.834 844.444 286.764 978.5 247.78C1112.56 209.52 1246.61 144.346 1380.67 157.622C1514.72 170.898 1648.78 260.212 1782.83 267.091C1916.89 273.488 2050.94 196.244 2117.97 157.622L2185 119V389.354H2117.97C2050.94 389.354 1916.89 389.354 1782.83 389.354C1648.78 389.354 1514.72 389.354 1380.67 389.354C1246.61 389.354 1112.56 389.354 978.5 389.354C844.444 389.354 710.389 389.354 576.333 389.354C442.278 389.354 308.222 389.354 174.167 389.354C40.1111 389.354 -93.9444 389.354 -160.972 389.354H-228V196.244Z" fill="#90DCFF"/>
</g>
<defs>
<clipPath id="clip0_28_150">
<rect width="2413" height="386.22" fill="white" transform="translate(-247)"/>
</clipPath>
</defs>
</svg>
