<svg width="1920" height="342" viewBox="0 0 1920 342" fill="none" xmlns="http://www.w3.org/2000/svg">
<path d="M-5 171L48.4722 159.564C101.944 148.556 208.889 125.044 315.833 142.464C422.778 159.244 529.722 216.956 636.667 239.4C743.611 261.844 850.556 251.156 957.5 216.636C1064.44 182.756 1171.39 125.044 1278.33 136.8C1385.28 148.556 1492.22 227.644 1599.17 233.736C1706.11 239.4 1813.06 171 1866.53 136.8L1920 102.6V342H1866.53C1813.06 342 1706.11 342 1599.17 342C1492.22 342 1385.28 342 1278.33 342C1171.39 342 1064.44 342 957.5 342C850.556 342 743.611 342 636.667 342C529.722 342 422.778 342 315.833 342C208.889 342 101.944 342 48.4722 342H-5V171Z" fill="#00B2FF"/>
</svg>
