<svg width="1754" height="499" viewBox="0 0 1754 499" fill="none" xmlns="http://www.w3.org/2000/svg">
<g clip-path="url(#clip0_29_156)">
<path d="M0 253L61.6111 236.081C123.222 219.794 246.444 185.006 369.667 210.781C492.889 235.606 616.111 320.994 739.333 354.2C862.556 387.406 985.778 371.594 1109 320.519C1232.22 270.394 1355.44 185.006 1478.67 202.4C1601.89 219.794 1725.11 336.806 1848.33 345.819C1971.56 354.2 2094.78 253 2156.39 202.4L2218 151.8V506H2156.39C2094.78 506 1971.56 506 1848.33 506C1725.11 506 1601.89 506 1478.67 506C1355.44 506 1232.22 506 1109 506C985.778 506 862.556 506 739.333 506C616.111 506 492.889 506 369.667 506C246.444 506 123.222 506 61.6111 506H0V253Z" fill="#90DCFF" fill-opacity="0.42"/>
</g>
<defs>
<clipPath id="clip0_29_156">
<rect width="2218" height="506" fill="white"/>
</clipPath>
</defs>
</svg>
